<?xml version="1.0" encoding="utf-8" standalone="no"?>
<!DOCTYPE svg PUBLIC "-//W3C//DTD SVG 1.1//EN"
  "http://www.w3.org/Graphics/SVG/1.1/DTD/svg11.dtd">
<!-- Created with matplotlib (https://matplotlib.org/) -->
<svg height="360pt" version="1.1" viewBox="0 0 720 360" width="720pt" xmlns="http://www.w3.org/2000/svg" xmlns:xlink="http://www.w3.org/1999/xlink">
 <defs>
  <style type="text/css">
*{stroke-linecap:butt;stroke-linejoin:round;}
  </style>
 </defs>
 <g id="figure_1">
  <g id="patch_1">
   <path d="M 0 360 
L 720 360 
L 720 0 
L 0 0 
z
" style="fill:#ffffff;"/>
  </g>
  <g id="axes_1">
   <g id="patch_2">
    <path d="M 90 320.4 
L 648 320.4 
L 648 43.2 
L 90 43.2 
z
" style="fill:#ffffff;"/>
   </g>
   <g id="PathCollection_1">
    <defs>
     <path d="M 0 1.936492 
C 0.513564 1.936492 1.006162 1.732451 1.369306 1.369306 
C 1.732451 1.006162 1.936492 0.513564 1.936492 0 
C 1.936492 -0.513564 1.732451 -1.006162 1.369306 -1.369306 
C 1.006162 -1.732451 0.513564 -1.936492 0 -1.936492 
C -0.513564 -1.936492 -1.006162 -1.732451 -1.369306 -1.369306 
C -1.732451 -1.006162 -1.936492 -0.513564 -1.936492 0 
C -1.936492 0.513564 -1.732451 1.006162 -1.369306 1.369306 
C -1.006162 1.732451 -0.513564 1.936492 0 1.936492 
z
" id="mbe9bbe036c" style="stroke:#ff0000;"/>
    </defs>
    <g clip-path="url(#pa124d780fe)">
     <use style="fill:#ff0000;stroke:#ff0000;" x="152.357735" xlink:href="#mbe9bbe036c" y="181.8"/>
     <use style="fill:#ff0000;stroke:#ff0000;" x="186.435106" xlink:href="#mbe9bbe036c" y="182.503157"/>
     <use style="fill:#ff0000;stroke:#ff0000;" x="198.54992" xlink:href="#mbe9bbe036c" y="173.539089"/>
     <use style="fill:#ff0000;stroke:#ff0000;" x="166.6722" xlink:href="#mbe9bbe036c" y="168.367474"/>
     <use style="fill:#ff0000;stroke:#ff0000;" x="178.256751" xlink:href="#mbe9bbe036c" y="190.717552"/>
     <use style="fill:#ff0000;stroke:#ff0000;" x="169.373294" xlink:href="#mbe9bbe036c" y="172.002394"/>
     <use style="fill:#ff0000;stroke:#ff0000;" x="190.263452" xlink:href="#mbe9bbe036c" y="198.616598"/>
     <use style="fill:#ff0000;stroke:#ff0000;" x="197.237998" xlink:href="#mbe9bbe036c" y="200.612821"/>
     <use style="fill:#ff0000;stroke:#ff0000;" x="160.185833" xlink:href="#mbe9bbe036c" y="187.989337"/>
     <use style="fill:#ff0000;stroke:#ff0000;" x="179.575747" xlink:href="#mbe9bbe036c" y="210.935319"/>
     <use style="fill:#ff0000;stroke:#ff0000;" x="173.824201" xlink:href="#mbe9bbe036c" y="186.818535"/>
     <use style="fill:#ff0000;stroke:#ff0000;" x="191.33042" xlink:href="#mbe9bbe036c" y="227.388513"/>
     <use style="fill:#ff0000;stroke:#ff0000;" x="219.684416" xlink:href="#mbe9bbe036c" y="152.200301"/>
     <use style="fill:#ff0000;stroke:#ff0000;" x="175.699383" xlink:href="#mbe9bbe036c" y="178.741179"/>
     <use style="fill:#ff0000;stroke:#ff0000;" x="176.970344" xlink:href="#mbe9bbe036c" y="196.067895"/>
     <use style="fill:#ff0000;stroke:#ff0000;" x="211.433135" xlink:href="#mbe9bbe036c" y="172.829719"/>
     <use style="fill:#ff0000;stroke:#ff0000;" x="244.207524" xlink:href="#mbe9bbe036c" y="149.367516"/>
     <use style="fill:#ff0000;stroke:#ff0000;" x="180.927243" xlink:href="#mbe9bbe036c" y="185.594592"/>
     <use style="fill:#ff0000;stroke:#ff0000;" x="163.127359" xlink:href="#mbe9bbe036c" y="188.148383"/>
     <use style="fill:#ff0000;stroke:#ff0000;" x="167.989709" xlink:href="#mbe9bbe036c" y="155.322099"/>
     <use style="fill:#ff0000;stroke:#ff0000;" x="167.089235" xlink:href="#mbe9bbe036c" y="177.031944"/>
     <use style="fill:#ff0000;stroke:#ff0000;" x="187.051186" xlink:href="#mbe9bbe036c" y="198.444055"/>
     <use style="fill:#ff0000;stroke:#ff0000;" x="171.453565" xlink:href="#mbe9bbe036c" y="157.62179"/>
     <use style="fill:#ff0000;stroke:#ff0000;" x="168.139511" xlink:href="#mbe9bbe036c" y="158.67132"/>
     <use style="fill:#ff0000;stroke:#ff0000;" x="188.665683" xlink:href="#mbe9bbe036c" y="169.915156"/>
     <use style="fill:#ff0000;stroke:#ff0000;" x="166.530292" xlink:href="#mbe9bbe036c" y="198.685335"/>
     <use style="fill:#ff0000;stroke:#ff0000;" x="156.990396" xlink:href="#mbe9bbe036c" y="189.267308"/>
     <use style="fill:#ff0000;stroke:#ff0000;" x="162.923333" xlink:href="#mbe9bbe036c" y="184.422623"/>
     <use style="fill:#ff0000;stroke:#ff0000;" x="181.593526" xlink:href="#mbe9bbe036c" y="141.867429"/>
     <use style="fill:#ff0000;stroke:#ff0000;" x="178.644643" xlink:href="#mbe9bbe036c" y="174.812854"/>
    </g>
   </g>
   <g id="PathCollection_2">
    <defs>
     <path d="M 0 1.936492 
C 0.513564 1.936492 1.006162 1.732451 1.369306 1.369306 
C 1.732451 1.006162 1.936492 0.513564 1.936492 0 
C 1.936492 -0.513564 1.732451 -1.006162 1.369306 -1.369306 
C 1.006162 -1.732451 0.513564 -1.936492 0 -1.936492 
C -0.513564 -1.936492 -1.006162 -1.732451 -1.369306 -1.369306 
C -1.732451 -1.006162 -1.936492 -0.513564 -1.936492 0 
C -1.936492 0.513564 -1.732451 1.006162 -1.369306 1.369306 
C -1.006162 1.732451 -0.513564 1.936492 0 1.936492 
z
" id="mdecfd93fb0" style="stroke:#ff8c00;"/>
    </defs>
    <g clip-path="url(#pa124d780fe)">
     <use style="fill:#ff8c00;stroke:#ff8c00;" x="108.25543" xlink:href="#mdecfd93fb0" y="181.8"/>
     <use style="fill:#ff8c00;stroke:#ff8c00;" x="105.984669" xlink:href="#mdecfd93fb0" y="187.719013"/>
     <use style="fill:#ff8c00;stroke:#ff8c00;" x="108.445847" xlink:href="#mdecfd93fb0" y="151.145917"/>
     <use style="fill:#ff8c00;stroke:#ff8c00;" x="107.334022" xlink:href="#mdecfd93fb0" y="198.34332"/>
     <use style="fill:#ff8c00;stroke:#ff8c00;" x="112.074289" xlink:href="#mdecfd93fb0" y="135.785226"/>
     <use style="fill:#ff8c00;stroke:#ff8c00;" x="112.784876" xlink:href="#mdecfd93fb0" y="179.221149"/>
     <use style="fill:#ff8c00;stroke:#ff8c00;" x="111.612739" xlink:href="#mdecfd93fb0" y="172.74822"/>
     <use style="fill:#ff8c00;stroke:#ff8c00;" x="109.964593" xlink:href="#mdecfd93fb0" y="191.854074"/>
     <use style="fill:#ff8c00;stroke:#ff8c00;" x="104.212737" xlink:href="#mdecfd93fb0" y="168.540113"/>
     <use style="fill:#ff8c00;stroke:#ff8c00;" x="105.676679" xlink:href="#mdecfd93fb0" y="177.388072"/>
     <use style="fill:#ff8c00;stroke:#ff8c00;" x="102.048398" xlink:href="#mdecfd93fb0" y="212.635591"/>
     <use style="fill:#ff8c00;stroke:#ff8c00;" x="103.024098" xlink:href="#mdecfd93fb0" y="214.584097"/>
     <use style="fill:#ff8c00;stroke:#ff8c00;" x="104.958489" xlink:href="#mdecfd93fb0" y="194.161665"/>
     <use style="fill:#ff8c00;stroke:#ff8c00;" x="104.34229" xlink:href="#mdecfd93fb0" y="199.794669"/>
     <use style="fill:#ff8c00;stroke:#ff8c00;" x="102.84912" xlink:href="#mdecfd93fb0" y="176.802972"/>
     <use style="fill:#ff8c00;stroke:#ff8c00;" x="107.374694" xlink:href="#mdecfd93fb0" y="195.542764"/>
     <use style="fill:#ff8c00;stroke:#ff8c00;" x="102.306016" xlink:href="#mdecfd93fb0" y="181.849586"/>
     <use style="fill:#ff8c00;stroke:#ff8c00;" x="108.607867" xlink:href="#mdecfd93fb0" y="182.106738"/>
     <use style="fill:#ff8c00;stroke:#ff8c00;" x="105.789432" xlink:href="#mdecfd93fb0" y="183.116997"/>
     <use style="fill:#ff8c00;stroke:#ff8c00;" x="113.15925" xlink:href="#mdecfd93fb0" y="157.094176"/>
     <use style="fill:#ff8c00;stroke:#ff8c00;" x="109.665389" xlink:href="#mdecfd93fb0" y="199.297792"/>
     <use style="fill:#ff8c00;stroke:#ff8c00;" x="119.28367" xlink:href="#mdecfd93fb0" y="183.931032"/>
     <use style="fill:#ff8c00;stroke:#ff8c00;" x="111.668616" xlink:href="#mdecfd93fb0" y="173.740249"/>
     <use style="fill:#ff8c00;stroke:#ff8c00;" x="113.228021" xlink:href="#mdecfd93fb0" y="105.874312"/>
     <use style="fill:#ff8c00;stroke:#ff8c00;" x="113.364776" xlink:href="#mdecfd93fb0" y="161.788818"/>
     <use style="fill:#ff8c00;stroke:#ff8c00;" x="108.45815" xlink:href="#mdecfd93fb0" y="185.29253"/>
     <use style="fill:#ff8c00;stroke:#ff8c00;" x="105.031413" xlink:href="#mdecfd93fb0" y="201.63828"/>
     <use style="fill:#ff8c00;stroke:#ff8c00;" x="106.75986" xlink:href="#mdecfd93fb0" y="169.225513"/>
     <use style="fill:#ff8c00;stroke:#ff8c00;" x="109.514689" xlink:href="#mdecfd93fb0" y="168.534712"/>
     <use style="fill:#ff8c00;stroke:#ff8c00;" x="110.776184" xlink:href="#mdecfd93fb0" y="172.467394"/>
    </g>
   </g>
   <g id="PathCollection_3">
    <defs>
     <path d="M 0 1.936492 
C 0.513564 1.936492 1.006162 1.732451 1.369306 1.369306 
C 1.732451 1.006162 1.936492 0.513564 1.936492 0 
C 1.936492 -0.513564 1.732451 -1.006162 1.369306 -1.369306 
C 1.006162 -1.732451 0.513564 -1.936492 0 -1.936492 
C -0.513564 -1.936492 -1.006162 -1.732451 -1.369306 -1.369306 
C -1.732451 -1.006162 -1.936492 -0.513564 -1.936492 0 
C -1.936492 0.513564 -1.732451 1.006162 -1.369306 1.369306 
C -1.006162 1.732451 -0.513564 1.936492 0 1.936492 
z
" id="m73aae1f73d" style="stroke:#ffff00;"/>
    </defs>
    <g clip-path="url(#pa124d780fe)">
     <use style="fill:#ffff00;stroke:#ffff00;" x="439.058265" xlink:href="#m73aae1f73d" y="181.8"/>
     <use style="fill:#ffff00;stroke:#ffff00;" x="402.398482" xlink:href="#m73aae1f73d" y="169.966143"/>
     <use style="fill:#ffff00;stroke:#ffff00;" x="559.476629" xlink:href="#m73aae1f73d" y="175.006417"/>
     <use style="fill:#ffff00;stroke:#ffff00;" x="231.657042" xlink:href="#m73aae1f73d" y="184.718803"/>
     <use style="fill:#ffff00;stroke:#ffff00;" x="232.250406" xlink:href="#m73aae1f73d" y="263.940479"/>
     <use style="fill:#ffff00;stroke:#ffff00;" x="353.024816" xlink:href="#m73aae1f73d" y="171.40794"/>
     <use style="fill:#ffff00;stroke:#ffff00;" x="379.109086" xlink:href="#m73aae1f73d" y="172.869134"/>
     <use style="fill:#ffff00;stroke:#ffff00;" x="226.674729" xlink:href="#m73aae1f73d" y="126.877992"/>
     <use style="fill:#ffff00;stroke:#ffff00;" x="188.730173" xlink:href="#m73aae1f73d" y="271.345524"/>
     <use style="fill:#ffff00;stroke:#ffff00;" x="182.237472" xlink:href="#m73aae1f73d" y="122.211392"/>
     <use style="fill:#ffff00;stroke:#ffff00;" x="205.077931" xlink:href="#m73aae1f73d" y="180.746715"/>
     <use style="fill:#ffff00;stroke:#ffff00;" x="208.649039" xlink:href="#m73aae1f73d" y="191.378912"/>
     <use style="fill:#ffff00;stroke:#ffff00;" x="165.782448" xlink:href="#m73aae1f73d" y="179.967093"/>
     <use style="fill:#ffff00;stroke:#ffff00;" x="166.017506" xlink:href="#m73aae1f73d" y="246.807899"/>
     <use style="fill:#ffff00;stroke:#ffff00;" x="176.299419" xlink:href="#m73aae1f73d" y="183.634467"/>
     <use style="fill:#ffff00;stroke:#ffff00;" x="189.99409" xlink:href="#m73aae1f73d" y="173.39984"/>
     <use style="fill:#ffff00;stroke:#ffff00;" x="170.690742" xlink:href="#m73aae1f73d" y="189.131826"/>
     <use style="fill:#ffff00;stroke:#ffff00;" x="194.237221" xlink:href="#m73aae1f73d" y="200.134996"/>
     <use style="fill:#ffff00;stroke:#ffff00;" x="176.624355" xlink:href="#m73aae1f73d" y="182.453789"/>
     <use style="fill:#ffff00;stroke:#ffff00;" x="215.951349" xlink:href="#m73aae1f73d" y="94.832173"/>
     <use style="fill:#ffff00;stroke:#ffff00;" x="178.107316" xlink:href="#m73aae1f73d" y="258.54211"/>
     <use style="fill:#ffff00;stroke:#ffff00;" x="178.14009" xlink:href="#m73aae1f73d" y="195.128023"/>
     <use style="fill:#ffff00;stroke:#ffff00;" x="176.005015" xlink:href="#m73aae1f73d" y="116.215389"/>
     <use style="fill:#ffff00;stroke:#ffff00;" x="183.671898" xlink:href="#m73aae1f73d" y="251.974228"/>
     <use style="fill:#ffff00;stroke:#ffff00;" x="200.021718" xlink:href="#m73aae1f73d" y="192.884588"/>
     <use style="fill:#ffff00;stroke:#ffff00;" x="196.73442" xlink:href="#m73aae1f73d" y="181.818787"/>
     <use style="fill:#ffff00;stroke:#ffff00;" x="185.276728" xlink:href="#m73aae1f73d" y="177.399745"/>
     <use style="fill:#ffff00;stroke:#ffff00;" x="177.526788" xlink:href="#m73aae1f73d" y="199.131694"/>
     <use style="fill:#ffff00;stroke:#ffff00;" x="180.975065" xlink:href="#m73aae1f73d" y="158.55889"/>
     <use style="fill:#ffff00;stroke:#ffff00;" x="167.654111" xlink:href="#m73aae1f73d" y="179.30645"/>
    </g>
   </g>
   <g id="PathCollection_4">
    <defs>
     <path d="M 0 1.936492 
C 0.513564 1.936492 1.006162 1.732451 1.369306 1.369306 
C 1.732451 1.006162 1.936492 0.513564 1.936492 0 
C 1.936492 -0.513564 1.732451 -1.006162 1.369306 -1.369306 
C 1.006162 -1.732451 0.513564 -1.936492 0 -1.936492 
C -0.513564 -1.936492 -1.006162 -1.732451 -1.369306 -1.369306 
C -1.732451 -1.006162 -1.936492 -0.513564 -1.936492 0 
C -1.936492 0.513564 -1.732451 1.006162 -1.369306 1.369306 
C -1.006162 1.732451 -0.513564 1.936492 0 1.936492 
z
" id="mb71fee56ca" style="stroke:#98fb98;"/>
    </defs>
    <g clip-path="url(#pa124d780fe)">
     <use style="fill:#98fb98;stroke:#98fb98;" x="232.097718" xlink:href="#mb71fee56ca" y="181.8"/>
     <use style="fill:#98fb98;stroke:#98fb98;" x="238.658119" xlink:href="#mb71fee56ca" y="183.24474"/>
     <use style="fill:#98fb98;stroke:#98fb98;" x="228.497973" xlink:href="#mb71fee56ca" y="198.178834"/>
     <use style="fill:#98fb98;stroke:#98fb98;" x="200.495514" xlink:href="#mb71fee56ca" y="182.195081"/>
     <use style="fill:#98fb98;stroke:#98fb98;" x="215.407081" xlink:href="#mb71fee56ca" y="176.18566"/>
     <use style="fill:#98fb98;stroke:#98fb98;" x="205.057564" xlink:href="#mb71fee56ca" y="174.282995"/>
     <use style="fill:#98fb98;stroke:#98fb98;" x="206.282287" xlink:href="#mb71fee56ca" y="180.176965"/>
     <use style="fill:#98fb98;stroke:#98fb98;" x="221.876783" xlink:href="#mb71fee56ca" y="189.432316"/>
     <use style="fill:#98fb98;stroke:#98fb98;" x="203.548405" xlink:href="#mb71fee56ca" y="195.426242"/>
     <use style="fill:#98fb98;stroke:#98fb98;" x="213.30221" xlink:href="#mb71fee56ca" y="185.85193"/>
     <use style="fill:#98fb98;stroke:#98fb98;" x="196.243857" xlink:href="#mb71fee56ca" y="182.995841"/>
     <use style="fill:#98fb98;stroke:#98fb98;" x="224.876678" xlink:href="#mb71fee56ca" y="214.142737"/>
     <use style="fill:#98fb98;stroke:#98fb98;" x="201.388858" xlink:href="#mb71fee56ca" y="167.51044"/>
     <use style="fill:#98fb98;stroke:#98fb98;" x="201.933665" xlink:href="#mb71fee56ca" y="173.915115"/>
     <use style="fill:#98fb98;stroke:#98fb98;" x="193.100225" xlink:href="#mb71fee56ca" y="197.271351"/>
     <use style="fill:#98fb98;stroke:#98fb98;" x="213.33325" xlink:href="#mb71fee56ca" y="180.028446"/>
     <use style="fill:#98fb98;stroke:#98fb98;" x="205.222071" xlink:href="#mb71fee56ca" y="197.2663"/>
     <use style="fill:#98fb98;stroke:#98fb98;" x="272.393489" xlink:href="#mb71fee56ca" y="191.227862"/>
     <use style="fill:#98fb98;stroke:#98fb98;" x="290.849833" xlink:href="#mb71fee56ca" y="191.736924"/>
     <use style="fill:#98fb98;stroke:#98fb98;" x="297.19061" xlink:href="#mb71fee56ca" y="168.866608"/>
     <use style="fill:#98fb98;stroke:#98fb98;" x="285.186184" xlink:href="#mb71fee56ca" y="179.175666"/>
     <use style="fill:#98fb98;stroke:#98fb98;" x="230.146757" xlink:href="#mb71fee56ca" y="177.906774"/>
     <use style="fill:#98fb98;stroke:#98fb98;" x="258.072074" xlink:href="#mb71fee56ca" y="164.916037"/>
     <use style="fill:#98fb98;stroke:#98fb98;" x="233.204214" xlink:href="#mb71fee56ca" y="168.558978"/>
     <use style="fill:#98fb98;stroke:#98fb98;" x="226.139779" xlink:href="#mb71fee56ca" y="173.422664"/>
     <use style="fill:#98fb98;stroke:#98fb98;" x="215.498467" xlink:href="#mb71fee56ca" y="199.439243"/>
     <use style="fill:#98fb98;stroke:#98fb98;" x="192.076104" xlink:href="#mb71fee56ca" y="181.072147"/>
     <use style="fill:#98fb98;stroke:#98fb98;" x="205.370724" xlink:href="#mb71fee56ca" y="182.31925"/>
     <use style="fill:#98fb98;stroke:#98fb98;" x="217.82963" xlink:href="#mb71fee56ca" y="158.445372"/>
     <use style="fill:#98fb98;stroke:#98fb98;" x="196.890526" xlink:href="#mb71fee56ca" y="183.208527"/>
    </g>
   </g>
   <g id="PathCollection_5">
    <defs>
     <path d="M 0 1.936492 
C 0.513564 1.936492 1.006162 1.732451 1.369306 1.369306 
C 1.732451 1.006162 1.936492 0.513564 1.936492 0 
C 1.936492 -0.513564 1.732451 -1.006162 1.369306 -1.369306 
C 1.006162 -1.732451 0.513564 -1.936492 0 -1.936492 
C -0.513564 -1.936492 -1.006162 -1.732451 -1.369306 -1.369306 
C -1.732451 -1.006162 -1.936492 -0.513564 -1.936492 0 
C -1.936492 0.513564 -1.732451 1.006162 -1.369306 1.369306 
C -1.006162 1.732451 -0.513564 1.936492 0 1.936492 
z
" id="md1de26d924" style="stroke:#006400;"/>
    </defs>
    <g clip-path="url(#pa124d780fe)">
     <use style="fill:#006400;stroke:#006400;" x="558.221284" xlink:href="#md1de26d924" y="181.8"/>
     <use style="fill:#006400;stroke:#006400;" x="517.277378" xlink:href="#md1de26d924" y="192.050354"/>
     <use style="fill:#006400;stroke:#006400;" x="609.476491" xlink:href="#md1de26d924" y="203.018666"/>
     <use style="fill:#006400;stroke:#006400;" x="448.038947" xlink:href="#md1de26d924" y="195.589837"/>
     <use style="fill:#006400;stroke:#006400;" x="523.660205" xlink:href="#md1de26d924" y="206.543867"/>
     <use style="fill:#006400;stroke:#006400;" x="501.246709" xlink:href="#md1de26d924" y="164.505697"/>
     <use style="fill:#006400;stroke:#006400;" x="467.927649" xlink:href="#md1de26d924" y="200.019088"/>
     <use style="fill:#006400;stroke:#006400;" x="464.05613" xlink:href="#md1de26d924" y="184.397569"/>
     <use style="fill:#006400;stroke:#006400;" x="480.326251" xlink:href="#md1de26d924" y="173.380148"/>
     <use style="fill:#006400;stroke:#006400;" x="658.241486" xlink:href="#md1de26d924" y="204.24326"/>
     <use style="fill:#006400;stroke:#006400;" x="610.736472" xlink:href="#md1de26d924" y="199.706071"/>
     <use style="fill:#006400;stroke:#006400;" x="580.59613" xlink:href="#md1de26d924" y="201.300359"/>
     <use style="fill:#006400;stroke:#006400;" x="593.440683" xlink:href="#md1de26d924" y="136.604261"/>
     <use style="fill:#006400;stroke:#006400;" x="532.051463" xlink:href="#md1de26d924" y="208.913002"/>
     <use style="fill:#006400;stroke:#006400;" x="577.7179" xlink:href="#md1de26d924" y="184.349045"/>
     <use style="fill:#006400;stroke:#006400;" x="568.044873" xlink:href="#md1de26d924" y="214.865076"/>
     <use style="fill:#006400;stroke:#006400;" x="728.52019" xlink:href="#md1de26d924" y="132.026376"/>
     <use style="fill:#006400;stroke:#006400;" x="694.547793" xlink:href="#md1de26d924" y="158.983224"/>
     <use style="fill:#006400;stroke:#006400;" x="653.355672" xlink:href="#md1de26d924" y="182.658898"/>
     <use style="fill:#006400;stroke:#006400;" x="643.196185" xlink:href="#md1de26d924" y="206.386974"/>
     <use style="fill:#006400;stroke:#006400;" x="763.14179" xlink:href="#md1de26d924" y="206.907959"/>
     <use style="fill:#006400;stroke:#006400;" x="573.401497" xlink:href="#md1de26d924" y="156.543626"/>
     <use style="fill:#006400;stroke:#006400;" x="627.712459" xlink:href="#md1de26d924" y="165.629419"/>
     <use style="fill:#006400;stroke:#006400;" x="541.681966" xlink:href="#md1de26d924" y="177.746922"/>
     <use style="fill:#006400;stroke:#006400;" x="623.000201" xlink:href="#md1de26d924" y="178.270577"/>
     <use style="fill:#006400;stroke:#006400;" x="504.031791" xlink:href="#md1de26d924" y="193.9616"/>
     <use style="fill:#006400;stroke:#006400;" x="504.822565" xlink:href="#md1de26d924" y="168.218396"/>
     <use style="fill:#006400;stroke:#006400;" x="483.097917" xlink:href="#md1de26d924" y="196.960586"/>
     <use style="fill:#006400;stroke:#006400;" x="503.387033" xlink:href="#md1de26d924" y="153.639724"/>
     <use style="fill:#006400;stroke:#006400;" x="466.33709" xlink:href="#md1de26d924" y="165.341649"/>
    </g>
   </g>
   <g id="PathCollection_6">
    <defs>
     <path d="M 0 1.936492 
C 0.513564 1.936492 1.006162 1.732451 1.369306 1.369306 
C 1.732451 1.006162 1.936492 0.513564 1.936492 0 
C 1.936492 -0.513564 1.732451 -1.006162 1.369306 -1.369306 
C 1.006162 -1.732451 0.513564 -1.936492 0 -1.936492 
C -0.513564 -1.936492 -1.006162 -1.732451 -1.369306 -1.369306 
C -1.732451 -1.006162 -1.936492 -0.513564 -1.936492 0 
C -1.936492 0.513564 -1.732451 1.006162 -1.369306 1.369306 
C -1.006162 1.732451 -0.513564 1.936492 0 1.936492 
z
" id="m1f2c138185" style="stroke:#000080;"/>
    </defs>
    <g clip-path="url(#pa124d780fe)">
     <use style="fill:#000080;stroke:#000080;" x="219.186167" xlink:href="#m1f2c138185" y="181.8"/>
     <use style="fill:#000080;stroke:#000080;" x="181.151242" xlink:href="#m1f2c138185" y="180.299418"/>
     <use style="fill:#000080;stroke:#000080;" x="171.542369" xlink:href="#m1f2c138185" y="190.535918"/>
     <use style="fill:#000080;stroke:#000080;" x="142.029097" xlink:href="#m1f2c138185" y="185.697404"/>
     <use style="fill:#000080;stroke:#000080;" x="162.6387" xlink:href="#m1f2c138185" y="175.676799"/>
     <use style="fill:#000080;stroke:#000080;" x="149.936533" xlink:href="#m1f2c138185" y="169.037088"/>
     <use style="fill:#000080;stroke:#000080;" x="175.52766" xlink:href="#m1f2c138185" y="188.860636"/>
     <use style="fill:#000080;stroke:#000080;" x="165.747774" xlink:href="#m1f2c138185" y="207.2834"/>
     <use style="fill:#000080;stroke:#000080;" x="140.534444" xlink:href="#m1f2c138185" y="175.200641"/>
     <use style="fill:#000080;stroke:#000080;" x="154.265725" xlink:href="#m1f2c138185" y="185.070077"/>
     <use style="fill:#000080;stroke:#000080;" x="148.642314" xlink:href="#m1f2c138185" y="180.342023"/>
     <use style="fill:#000080;stroke:#000080;" x="209.335516" xlink:href="#m1f2c138185" y="298.664768"/>
     <use style="fill:#000080;stroke:#000080;" x="191.862915" xlink:href="#m1f2c138185" y="182.960924"/>
     <use style="fill:#000080;stroke:#000080;" x="164.875369" xlink:href="#m1f2c138185" y="182.935518"/>
     <use style="fill:#000080;stroke:#000080;" x="161.06229" xlink:href="#m1f2c138185" y="202.950523"/>
     <use style="fill:#000080;stroke:#000080;" x="165.799685" xlink:href="#m1f2c138185" y="157.239885"/>
     <use style="fill:#000080;stroke:#000080;" x="166.397985" xlink:href="#m1f2c138185" y="170.329172"/>
     <use style="fill:#000080;stroke:#000080;" x="179.66803" xlink:href="#m1f2c138185" y="162.232414"/>
     <use style="fill:#000080;stroke:#000080;" x="160.223508" xlink:href="#m1f2c138185" y="153.300346"/>
     <use style="fill:#000080;stroke:#000080;" x="195.65135" xlink:href="#m1f2c138185" y="203.625105"/>
     <use style="fill:#000080;stroke:#000080;" x="164.91638" xlink:href="#m1f2c138185" y="182.617898"/>
     <use style="fill:#000080;stroke:#000080;" x="147.437001" xlink:href="#m1f2c138185" y="177.428477"/>
     <use style="fill:#000080;stroke:#000080;" x="150.892773" xlink:href="#m1f2c138185" y="163.670175"/>
     <use style="fill:#000080;stroke:#000080;" x="182.096655" xlink:href="#m1f2c138185" y="162.27323"/>
     <use style="fill:#000080;stroke:#000080;" x="178.610899" xlink:href="#m1f2c138185" y="188.816061"/>
     <use style="fill:#000080;stroke:#000080;" x="157.664797" xlink:href="#m1f2c138185" y="169.26945"/>
     <use style="fill:#000080;stroke:#000080;" x="155.572503" xlink:href="#m1f2c138185" y="191.717864"/>
     <use style="fill:#000080;stroke:#000080;" x="153.984908" xlink:href="#m1f2c138185" y="195.900534"/>
     <use style="fill:#000080;stroke:#000080;" x="158.08884" xlink:href="#m1f2c138185" y="170.301662"/>
     <use style="fill:#000080;stroke:#000080;" x="154.148567" xlink:href="#m1f2c138185" y="174.863445"/>
    </g>
   </g>
   <g id="PathCollection_7">
    <defs>
     <path d="M 0 1.936492 
C 0.513564 1.936492 1.006162 1.732451 1.369306 1.369306 
C 1.732451 1.006162 1.936492 0.513564 1.936492 0 
C 1.936492 -0.513564 1.732451 -1.006162 1.369306 -1.369306 
C 1.006162 -1.732451 0.513564 -1.936492 0 -1.936492 
C -0.513564 -1.936492 -1.006162 -1.732451 -1.369306 -1.369306 
C -1.732451 -1.006162 -1.936492 -0.513564 -1.936492 0 
C -1.936492 0.513564 -1.732451 1.006162 -1.369306 1.369306 
C -1.006162 1.732451 -0.513564 1.936492 0 1.936492 
z
" id="m2d856dbea2" style="stroke:#87ceeb;"/>
    </defs>
    <g clip-path="url(#pa124d780fe)">
     <use style="fill:#87ceeb;stroke:#87ceeb;" x="210.159991" xlink:href="#m2d856dbea2" y="181.8"/>
     <use style="fill:#87ceeb;stroke:#87ceeb;" x="175.388717" xlink:href="#m2d856dbea2" y="190.24658"/>
     <use style="fill:#87ceeb;stroke:#87ceeb;" x="171.605796" xlink:href="#m2d856dbea2" y="145.629702"/>
     <use style="fill:#87ceeb;stroke:#87ceeb;" x="126.71377" xlink:href="#m2d856dbea2" y="186.271453"/>
     <use style="fill:#87ceeb;stroke:#87ceeb;" x="137.264848" xlink:href="#m2d856dbea2" y="215.878092"/>
     <use style="fill:#87ceeb;stroke:#87ceeb;" x="137.303036" xlink:href="#m2d856dbea2" y="170.722107"/>
     <use style="fill:#87ceeb;stroke:#87ceeb;" x="128.584307" xlink:href="#m2d856dbea2" y="181.830748"/>
     <use style="fill:#87ceeb;stroke:#87ceeb;" x="130.496819" xlink:href="#m2d856dbea2" y="143.645396"/>
     <use style="fill:#87ceeb;stroke:#87ceeb;" x="142.207533" xlink:href="#m2d856dbea2" y="140.545395"/>
     <use style="fill:#87ceeb;stroke:#87ceeb;" x="137.206905" xlink:href="#m2d856dbea2" y="173.727155"/>
     <use style="fill:#87ceeb;stroke:#87ceeb;" x="132.002964" xlink:href="#m2d856dbea2" y="173.345273"/>
     <use style="fill:#87ceeb;stroke:#87ceeb;" x="147.042201" xlink:href="#m2d856dbea2" y="194.123021"/>
     <use style="fill:#87ceeb;stroke:#87ceeb;" x="131.736636" xlink:href="#m2d856dbea2" y="180.215633"/>
     <use style="fill:#87ceeb;stroke:#87ceeb;" x="127.605992" xlink:href="#m2d856dbea2" y="198.791805"/>
     <use style="fill:#87ceeb;stroke:#87ceeb;" x="122.891778" xlink:href="#m2d856dbea2" y="177.513545"/>
     <use style="fill:#87ceeb;stroke:#87ceeb;" x="139.066117" xlink:href="#m2d856dbea2" y="157.992194"/>
     <use style="fill:#87ceeb;stroke:#87ceeb;" x="127.65851" xlink:href="#m2d856dbea2" y="166.302588"/>
     <use style="fill:#87ceeb;stroke:#87ceeb;" x="141.75823" xlink:href="#m2d856dbea2" y="189.495769"/>
     <use style="fill:#87ceeb;stroke:#87ceeb;" x="136.218744" xlink:href="#m2d856dbea2" y="183.610337"/>
     <use style="fill:#87ceeb;stroke:#87ceeb;" x="126.943622" xlink:href="#m2d856dbea2" y="200.685924"/>
     <use style="fill:#87ceeb;stroke:#87ceeb;" x="137.745271" xlink:href="#m2d856dbea2" y="158.989752"/>
     <use style="fill:#87ceeb;stroke:#87ceeb;" x="151.451087" xlink:href="#m2d856dbea2" y="190.807677"/>
     <use style="fill:#87ceeb;stroke:#87ceeb;" x="208.433315" xlink:href="#m2d856dbea2" y="157.10908"/>
     <use style="fill:#87ceeb;stroke:#87ceeb;" x="182.618185" xlink:href="#m2d856dbea2" y="223.36554"/>
     <use style="fill:#87ceeb;stroke:#87ceeb;" x="174.691861" xlink:href="#m2d856dbea2" y="151.759977"/>
     <use style="fill:#87ceeb;stroke:#87ceeb;" x="152.96794" xlink:href="#m2d856dbea2" y="207.834192"/>
     <use style="fill:#87ceeb;stroke:#87ceeb;" x="136.288396" xlink:href="#m2d856dbea2" y="180.263415"/>
     <use style="fill:#87ceeb;stroke:#87ceeb;" x="155.657906" xlink:href="#m2d856dbea2" y="204.642671"/>
     <use style="fill:#87ceeb;stroke:#87ceeb;" x="157.113782" xlink:href="#m2d856dbea2" y="156.280451"/>
     <use style="fill:#87ceeb;stroke:#87ceeb;" x="148.804176" xlink:href="#m2d856dbea2" y="174.897234"/>
    </g>
   </g>
   <g id="PathCollection_8">
    <defs>
     <path d="M 0 1.936492 
C 0.513564 1.936492 1.006162 1.732451 1.369306 1.369306 
C 1.732451 1.006162 1.936492 0.513564 1.936492 0 
C 1.936492 -0.513564 1.732451 -1.006162 1.369306 -1.369306 
C 1.006162 -1.732451 0.513564 -1.936492 0 -1.936492 
C -0.513564 -1.936492 -1.006162 -1.732451 -1.369306 -1.369306 
C -1.732451 -1.006162 -1.936492 -0.513564 -1.936492 0 
C -1.936492 0.513564 -1.732451 1.006162 -1.369306 1.369306 
C -1.006162 1.732451 -0.513564 1.936492 0 1.936492 
z
" id="mf85a93c46e" style="stroke:#bf00bf;"/>
    </defs>
    <g clip-path="url(#pa124d780fe)">
     <use style="fill:#bf00bf;stroke:#bf00bf;" x="176.988087" xlink:href="#mf85a93c46e" y="181.8"/>
     <use style="fill:#bf00bf;stroke:#bf00bf;" x="196.110152" xlink:href="#mf85a93c46e" y="205.84908"/>
     <use style="fill:#bf00bf;stroke:#bf00bf;" x="223.728506" xlink:href="#mf85a93c46e" y="164.120522"/>
     <use style="fill:#bf00bf;stroke:#bf00bf;" x="179.471683" xlink:href="#mf85a93c46e" y="187.787274"/>
     <use style="fill:#bf00bf;stroke:#bf00bf;" x="181.648997" xlink:href="#mf85a93c46e" y="184.37372"/>
     <use style="fill:#bf00bf;stroke:#bf00bf;" x="187.856527" xlink:href="#mf85a93c46e" y="192.816642"/>
     <use style="fill:#bf00bf;stroke:#bf00bf;" x="187.774909" xlink:href="#mf85a93c46e" y="173.620438"/>
     <use style="fill:#bf00bf;stroke:#bf00bf;" x="177.849691" xlink:href="#mf85a93c46e" y="180.137641"/>
     <use style="fill:#bf00bf;stroke:#bf00bf;" x="194.493398" xlink:href="#mf85a93c46e" y="178.230623"/>
     <use style="fill:#bf00bf;stroke:#bf00bf;" x="201.391918" xlink:href="#mf85a93c46e" y="190.884483"/>
     <use style="fill:#bf00bf;stroke:#bf00bf;" x="189.167025" xlink:href="#mf85a93c46e" y="179.510403"/>
     <use style="fill:#bf00bf;stroke:#bf00bf;" x="219.582164" xlink:href="#mf85a93c46e" y="176.754266"/>
     <use style="fill:#bf00bf;stroke:#bf00bf;" x="194.645817" xlink:href="#mf85a93c46e" y="193.104232"/>
     <use style="fill:#bf00bf;stroke:#bf00bf;" x="199.029715" xlink:href="#mf85a93c46e" y="177.779524"/>
     <use style="fill:#bf00bf;stroke:#bf00bf;" x="255.364178" xlink:href="#mf85a93c46e" y="168.884922"/>
     <use style="fill:#bf00bf;stroke:#bf00bf;" x="200.07317" xlink:href="#mf85a93c46e" y="191.456025"/>
     <use style="fill:#bf00bf;stroke:#bf00bf;" x="203.144816" xlink:href="#mf85a93c46e" y="183.718564"/>
     <use style="fill:#bf00bf;stroke:#bf00bf;" x="205.449012" xlink:href="#mf85a93c46e" y="176.447876"/>
     <use style="fill:#bf00bf;stroke:#bf00bf;" x="201.718455" xlink:href="#mf85a93c46e" y="182.796562"/>
     <use style="fill:#bf00bf;stroke:#bf00bf;" x="203.624773" xlink:href="#mf85a93c46e" y="173.806002"/>
     <use style="fill:#bf00bf;stroke:#bf00bf;" x="197.914029" xlink:href="#mf85a93c46e" y="175.052631"/>
     <use style="fill:#bf00bf;stroke:#bf00bf;" x="200.234356" xlink:href="#mf85a93c46e" y="181.52999"/>
     <use style="fill:#bf00bf;stroke:#bf00bf;" x="241.627178" xlink:href="#mf85a93c46e" y="192.557716"/>
     <use style="fill:#bf00bf;stroke:#bf00bf;" x="235.974833" xlink:href="#mf85a93c46e" y="186.204451"/>
     <use style="fill:#bf00bf;stroke:#bf00bf;" x="252.058744" xlink:href="#mf85a93c46e" y="198.650925"/>
     <use style="fill:#bf00bf;stroke:#bf00bf;" x="221.198128" xlink:href="#mf85a93c46e" y="187.431857"/>
     <use style="fill:#bf00bf;stroke:#bf00bf;" x="214.240434" xlink:href="#mf85a93c46e" y="197.164371"/>
     <use style="fill:#bf00bf;stroke:#bf00bf;" x="217.059118" xlink:href="#mf85a93c46e" y="177.643745"/>
     <use style="fill:#bf00bf;stroke:#bf00bf;" x="212.607378" xlink:href="#mf85a93c46e" y="167.048146"/>
     <use style="fill:#bf00bf;stroke:#bf00bf;" x="213.063594" xlink:href="#mf85a93c46e" y="180.965427"/>
    </g>
   </g>
   <g id="PathCollection_9">
    <defs>
     <path d="M 0 1.936492 
C 0.513564 1.936492 1.006162 1.732451 1.369306 1.369306 
C 1.732451 1.006162 1.936492 0.513564 1.936492 0 
C 1.936492 -0.513564 1.732451 -1.006162 1.369306 -1.369306 
C 1.006162 -1.732451 0.513564 -1.936492 0 -1.936492 
C -0.513564 -1.936492 -1.006162 -1.732451 -1.369306 -1.369306 
C -1.732451 -1.006162 -1.936492 -0.513564 -1.936492 0 
C -1.936492 0.513564 -1.732451 1.006162 -1.369306 1.369306 
C -1.006162 1.732451 -0.513564 1.936492 0 1.936492 
z
" id="m3aba720f83" style="stroke:#00bfbf;"/>
    </defs>
    <g clip-path="url(#pa124d780fe)">
     <use style="fill:#00bfbf;stroke:#00bfbf;" x="149.194648" xlink:href="#m3aba720f83" y="181.8"/>
     <use style="fill:#00bfbf;stroke:#00bfbf;" x="145.302554" xlink:href="#m3aba720f83" y="147.732083"/>
     <use style="fill:#00bfbf;stroke:#00bfbf;" x="156.597929" xlink:href="#m3aba720f83" y="182.825583"/>
     <use style="fill:#00bfbf;stroke:#00bfbf;" x="135.062591" xlink:href="#m3aba720f83" y="168.247291"/>
     <use style="fill:#00bfbf;stroke:#00bfbf;" x="144.878696" xlink:href="#m3aba720f83" y="189.963763"/>
     <use style="fill:#00bfbf;stroke:#00bfbf;" x="150.724441" xlink:href="#m3aba720f83" y="163.727464"/>
     <use style="fill:#00bfbf;stroke:#00bfbf;" x="150.807082" xlink:href="#m3aba720f83" y="146.645973"/>
     <use style="fill:#00bfbf;stroke:#00bfbf;" x="146.230578" xlink:href="#m3aba720f83" y="195.369453"/>
     <use style="fill:#00bfbf;stroke:#00bfbf;" x="134.665389" xlink:href="#m3aba720f83" y="184.035607"/>
     <use style="fill:#00bfbf;stroke:#00bfbf;" x="145.495551" xlink:href="#m3aba720f83" y="196.648308"/>
     <use style="fill:#00bfbf;stroke:#00bfbf;" x="141.199341" xlink:href="#m3aba720f83" y="209.447922"/>
     <use style="fill:#00bfbf;stroke:#00bfbf;" x="139.949613" xlink:href="#m3aba720f83" y="191.851115"/>
     <use style="fill:#00bfbf;stroke:#00bfbf;" x="133.208366" xlink:href="#m3aba720f83" y="170.11106"/>
     <use style="fill:#00bfbf;stroke:#00bfbf;" x="136.283552" xlink:href="#m3aba720f83" y="195.185746"/>
     <use style="fill:#00bfbf;stroke:#00bfbf;" x="139.396379" xlink:href="#m3aba720f83" y="203.375422"/>
     <use style="fill:#00bfbf;stroke:#00bfbf;" x="145.779279" xlink:href="#m3aba720f83" y="174.131158"/>
     <use style="fill:#00bfbf;stroke:#00bfbf;" x="169.390276" xlink:href="#m3aba720f83" y="205.835677"/>
     <use style="fill:#00bfbf;stroke:#00bfbf;" x="191.788278" xlink:href="#m3aba720f83" y="179.486565"/>
     <use style="fill:#00bfbf;stroke:#00bfbf;" x="159.263284" xlink:href="#m3aba720f83" y="153.695412"/>
     <use style="fill:#00bfbf;stroke:#00bfbf;" x="151.247724" xlink:href="#m3aba720f83" y="190.485495"/>
     <use style="fill:#00bfbf;stroke:#00bfbf;" x="149.40936" xlink:href="#m3aba720f83" y="190.659237"/>
     <use style="fill:#00bfbf;stroke:#00bfbf;" x="163.601199" xlink:href="#m3aba720f83" y="169.598919"/>
     <use style="fill:#00bfbf;stroke:#00bfbf;" x="148.275598" xlink:href="#m3aba720f83" y="181.257483"/>
     <use style="fill:#00bfbf;stroke:#00bfbf;" x="160.728012" xlink:href="#m3aba720f83" y="166.846724"/>
     <use style="fill:#00bfbf;stroke:#00bfbf;" x="151.617521" xlink:href="#m3aba720f83" y="179.079077"/>
     <use style="fill:#00bfbf;stroke:#00bfbf;" x="154.684973" xlink:href="#m3aba720f83" y="194.377035"/>
     <use style="fill:#00bfbf;stroke:#00bfbf;" x="148.864974" xlink:href="#m3aba720f83" y="167.187927"/>
     <use style="fill:#00bfbf;stroke:#00bfbf;" x="151.257423" xlink:href="#m3aba720f83" y="165.766034"/>
     <use style="fill:#00bfbf;stroke:#00bfbf;" x="147.88893" xlink:href="#m3aba720f83" y="182.77392"/>
     <use style="fill:#00bfbf;stroke:#00bfbf;" x="134.199019" xlink:href="#m3aba720f83" y="178.491843"/>
    </g>
   </g>
   <g id="PathCollection_10">
    <defs>
     <path d="M 0 1.936492 
C 0.513564 1.936492 1.006162 1.732451 1.369306 1.369306 
C 1.732451 1.006162 1.936492 0.513564 1.936492 0 
C 1.936492 -0.513564 1.732451 -1.006162 1.369306 -1.369306 
C 1.006162 -1.732451 0.513564 -1.936492 0 -1.936492 
C -0.513564 -1.936492 -1.006162 -1.732451 -1.369306 -1.369306 
C -1.732451 -1.006162 -1.936492 -0.513564 -1.936492 0 
C -1.936492 0.513564 -1.732451 1.006162 -1.369306 1.369306 
C -1.006162 1.732451 -0.513564 1.936492 0 1.936492 
z
" id="me22329e6ab" style="stroke:#2f4f4f;"/>
    </defs>
    <g clip-path="url(#pa124d780fe)">
     <use style="fill:#2f4f4f;stroke:#2f4f4f;" x="109.804871" xlink:href="#me22329e6ab" y="181.8"/>
     <use style="fill:#2f4f4f;stroke:#2f4f4f;" x="113.081168" xlink:href="#me22329e6ab" y="167.437295"/>
     <use style="fill:#2f4f4f;stroke:#2f4f4f;" x="113.158032" xlink:href="#me22329e6ab" y="186.328881"/>
     <use style="fill:#2f4f4f;stroke:#2f4f4f;" x="112.436136" xlink:href="#me22329e6ab" y="205.511679"/>
     <use style="fill:#2f4f4f;stroke:#2f4f4f;" x="120.072077" xlink:href="#me22329e6ab" y="173.177942"/>
     <use style="fill:#2f4f4f;stroke:#2f4f4f;" x="118.401275" xlink:href="#me22329e6ab" y="182.189987"/>
     <use style="fill:#2f4f4f;stroke:#2f4f4f;" x="112.675872" xlink:href="#me22329e6ab" y="178.840863"/>
     <use style="fill:#2f4f4f;stroke:#2f4f4f;" x="117.406293" xlink:href="#me22329e6ab" y="201.305632"/>
     <use style="fill:#2f4f4f;stroke:#2f4f4f;" x="102.077745" xlink:href="#me22329e6ab" y="195.533887"/>
     <use style="fill:#2f4f4f;stroke:#2f4f4f;" x="120.605913" xlink:href="#me22329e6ab" y="203.974144"/>
     <use style="fill:#2f4f4f;stroke:#2f4f4f;" x="129.178838" xlink:href="#me22329e6ab" y="151.200958"/>
     <use style="fill:#2f4f4f;stroke:#2f4f4f;" x="136.198411" xlink:href="#me22329e6ab" y="235.121066"/>
     <use style="fill:#2f4f4f;stroke:#2f4f4f;" x="117.536145" xlink:href="#me22329e6ab" y="180.14149"/>
     <use style="fill:#2f4f4f;stroke:#2f4f4f;" x="111.95115" xlink:href="#me22329e6ab" y="166.83545"/>
     <use style="fill:#2f4f4f;stroke:#2f4f4f;" x="116.106825" xlink:href="#me22329e6ab" y="186.153773"/>
     <use style="fill:#2f4f4f;stroke:#2f4f4f;" x="130.361005" xlink:href="#me22329e6ab" y="136.93181"/>
     <use style="fill:#2f4f4f;stroke:#2f4f4f;" x="112.805847" xlink:href="#me22329e6ab" y="149.639929"/>
     <use style="fill:#2f4f4f;stroke:#2f4f4f;" x="108.950616" xlink:href="#me22329e6ab" y="182.017365"/>
     <use style="fill:#2f4f4f;stroke:#2f4f4f;" x="104.740103" xlink:href="#me22329e6ab" y="210.707583"/>
     <use style="fill:#2f4f4f;stroke:#2f4f4f;" x="111.48519" xlink:href="#me22329e6ab" y="146.966894"/>
     <use style="fill:#2f4f4f;stroke:#2f4f4f;" x="110.205391" xlink:href="#me22329e6ab" y="188.721269"/>
     <use style="fill:#2f4f4f;stroke:#2f4f4f;" x="118.436014" xlink:href="#me22329e6ab" y="186.17487"/>
     <use style="fill:#2f4f4f;stroke:#2f4f4f;" x="113.86224" xlink:href="#me22329e6ab" y="161.550566"/>
     <use style="fill:#2f4f4f;stroke:#2f4f4f;" x="112.001691" xlink:href="#me22329e6ab" y="159.375859"/>
     <use style="fill:#2f4f4f;stroke:#2f4f4f;" x="114.152523" xlink:href="#me22329e6ab" y="154.785558"/>
     <use style="fill:#2f4f4f;stroke:#2f4f4f;" x="113.011407" xlink:href="#me22329e6ab" y="207.614411"/>
     <use style="fill:#2f4f4f;stroke:#2f4f4f;" x="113.562406" xlink:href="#me22329e6ab" y="181.565188"/>
     <use style="fill:#2f4f4f;stroke:#2f4f4f;" x="109.738517" xlink:href="#me22329e6ab" y="166.207879"/>
     <use style="fill:#2f4f4f;stroke:#2f4f4f;" x="111.088402" xlink:href="#me22329e6ab" y="186.697602"/>
     <use style="fill:#2f4f4f;stroke:#2f4f4f;" x="105.767895" xlink:href="#me22329e6ab" y="174.745699"/>
    </g>
   </g>
   <g id="PathCollection_11">
    <defs>
     <path d="M 0 3.535534 
C 0.937635 3.535534 1.836992 3.163008 2.5 2.5 
C 3.163008 1.836992 3.535534 0.937635 3.535534 0 
C 3.535534 -0.937635 3.163008 -1.836992 2.5 -2.5 
C 1.836992 -3.163008 0.937635 -3.535534 0 -3.535534 
C -0.937635 -3.535534 -1.836992 -3.163008 -2.5 -2.5 
C -3.163008 -1.836992 -3.535534 -0.937635 -3.535534 0 
C -3.535534 0.937635 -3.163008 1.836992 -2.5 2.5 
C -1.836992 3.163008 -0.937635 3.535534 0 3.535534 
z
" id="m70e067685c" style="stroke:#000000;"/>
    </defs>
    <g clip-path="url(#pa124d780fe)">
     <use style="stroke:#000000;" x="130.601459" xlink:href="#m70e067685c" y="178.04437"/>
     <use style="stroke:#000000;" x="199.846885" xlink:href="#m70e067685c" y="189.938511"/>
     <use style="stroke:#000000;" x="429.860051" xlink:href="#m70e067685c" y="170.660574"/>
    </g>
   </g>
   <g id="matplotlib.axis_1">
    <g id="xtick_1">
     <g id="line2d_1">
      <defs>
       <path d="M 0 0 
L 0 3.5 
" id="m278f5d21bd" style="stroke:#000000;stroke-width:0.8;"/>
      </defs>
      <g>
       <use style="stroke:#000000;stroke-width:0.8;" x="90" xlink:href="#m278f5d21bd" y="320.4"/>
      </g>
     </g>
     <g id="text_1">
      <!-- 0 -->
      <defs>
       <path d="M 31.78125 66.40625 
Q 24.171875 66.40625 20.328125 58.90625 
Q 16.5 51.421875 16.5 36.375 
Q 16.5 21.390625 20.328125 13.890625 
Q 24.171875 6.390625 31.78125 6.390625 
Q 39.453125 6.390625 43.28125 13.890625 
Q 47.125 21.390625 47.125 36.375 
Q 47.125 51.421875 43.28125 58.90625 
Q 39.453125 66.40625 31.78125 66.40625 
z
M 31.78125 74.21875 
Q 44.046875 74.21875 50.515625 64.515625 
Q 56.984375 54.828125 56.984375 36.375 
Q 56.984375 17.96875 50.515625 8.265625 
Q 44.046875 -1.421875 31.78125 -1.421875 
Q 19.53125 -1.421875 13.0625 8.265625 
Q 6.59375 17.96875 6.59375 36.375 
Q 6.59375 54.828125 13.0625 64.515625 
Q 19.53125 74.21875 31.78125 74.21875 
z
" id="DejaVuSans-48"/>
      </defs>
      <g transform="translate(86.81875 334.998438)scale(0.1 -0.1)">
       <use xlink:href="#DejaVuSans-48"/>
      </g>
     </g>
    </g>
    <g id="xtick_2">
     <g id="line2d_2">
      <g>
       <use style="stroke:#000000;stroke-width:0.8;" x="169.714286" xlink:href="#m278f5d21bd" y="320.4"/>
      </g>
     </g>
     <g id="text_2">
      <!-- 2 -->
      <defs>
       <path d="M 19.1875 8.296875 
L 53.609375 8.296875 
L 53.609375 0 
L 7.328125 0 
L 7.328125 8.296875 
Q 12.9375 14.109375 22.625 23.890625 
Q 32.328125 33.6875 34.8125 36.53125 
Q 39.546875 41.84375 41.421875 45.53125 
Q 43.3125 49.21875 43.3125 52.78125 
Q 43.3125 58.59375 39.234375 62.25 
Q 35.15625 65.921875 28.609375 65.921875 
Q 23.96875 65.921875 18.8125 64.3125 
Q 13.671875 62.703125 7.8125 59.421875 
L 7.8125 69.390625 
Q 13.765625 71.78125 18.9375 73 
Q 24.125 74.21875 28.421875 74.21875 
Q 39.75 74.21875 46.484375 68.546875 
Q 53.21875 62.890625 53.21875 53.421875 
Q 53.21875 48.921875 51.53125 44.890625 
Q 49.859375 40.875 45.40625 35.40625 
Q 44.1875 33.984375 37.640625 27.21875 
Q 31.109375 20.453125 19.1875 8.296875 
z
" id="DejaVuSans-50"/>
      </defs>
      <g transform="translate(166.533036 334.998438)scale(0.1 -0.1)">
       <use xlink:href="#DejaVuSans-50"/>
      </g>
     </g>
    </g>
    <g id="xtick_3">
     <g id="line2d_3">
      <g>
       <use style="stroke:#000000;stroke-width:0.8;" x="249.428571" xlink:href="#m278f5d21bd" y="320.4"/>
      </g>
     </g>
     <g id="text_3">
      <!-- 4 -->
      <defs>
       <path d="M 37.796875 64.3125 
L 12.890625 25.390625 
L 37.796875 25.390625 
z
M 35.203125 72.90625 
L 47.609375 72.90625 
L 47.609375 25.390625 
L 58.015625 25.390625 
L 58.015625 17.1875 
L 47.609375 17.1875 
L 47.609375 0 
L 37.796875 0 
L 37.796875 17.1875 
L 4.890625 17.1875 
L 4.890625 26.703125 
z
" id="DejaVuSans-52"/>
      </defs>
      <g transform="translate(246.247321 334.998438)scale(0.1 -0.1)">
       <use xlink:href="#DejaVuSans-52"/>
      </g>
     </g>
    </g>
    <g id="xtick_4">
     <g id="line2d_4">
      <g>
       <use style="stroke:#000000;stroke-width:0.8;" x="329.142857" xlink:href="#m278f5d21bd" y="320.4"/>
      </g>
     </g>
     <g id="text_4">
      <!-- 6 -->
      <defs>
       <path d="M 33.015625 40.375 
Q 26.375 40.375 22.484375 35.828125 
Q 18.609375 31.296875 18.609375 23.390625 
Q 18.609375 15.53125 22.484375 10.953125 
Q 26.375 6.390625 33.015625 6.390625 
Q 39.65625 6.390625 43.53125 10.953125 
Q 47.40625 15.53125 47.40625 23.390625 
Q 47.40625 31.296875 43.53125 35.828125 
Q 39.65625 40.375 33.015625 40.375 
z
M 52.59375 71.296875 
L 52.59375 62.3125 
Q 48.875 64.0625 45.09375 64.984375 
Q 41.3125 65.921875 37.59375 65.921875 
Q 27.828125 65.921875 22.671875 59.328125 
Q 17.53125 52.734375 16.796875 39.40625 
Q 19.671875 43.65625 24.015625 45.921875 
Q 28.375 48.1875 33.59375 48.1875 
Q 44.578125 48.1875 50.953125 41.515625 
Q 57.328125 34.859375 57.328125 23.390625 
Q 57.328125 12.15625 50.6875 5.359375 
Q 44.046875 -1.421875 33.015625 -1.421875 
Q 20.359375 -1.421875 13.671875 8.265625 
Q 6.984375 17.96875 6.984375 36.375 
Q 6.984375 53.65625 15.1875 63.9375 
Q 23.390625 74.21875 37.203125 74.21875 
Q 40.921875 74.21875 44.703125 73.484375 
Q 48.484375 72.75 52.59375 71.296875 
z
" id="DejaVuSans-54"/>
      </defs>
      <g transform="translate(325.961607 334.998438)scale(0.1 -0.1)">
       <use xlink:href="#DejaVuSans-54"/>
      </g>
     </g>
    </g>
    <g id="xtick_5">
     <g id="line2d_5">
      <g>
       <use style="stroke:#000000;stroke-width:0.8;" x="408.857143" xlink:href="#m278f5d21bd" y="320.4"/>
      </g>
     </g>
     <g id="text_5">
      <!-- 8 -->
      <defs>
       <path d="M 31.78125 34.625 
Q 24.75 34.625 20.71875 30.859375 
Q 16.703125 27.09375 16.703125 20.515625 
Q 16.703125 13.921875 20.71875 10.15625 
Q 24.75 6.390625 31.78125 6.390625 
Q 38.8125 6.390625 42.859375 10.171875 
Q 46.921875 13.96875 46.921875 20.515625 
Q 46.921875 27.09375 42.890625 30.859375 
Q 38.875 34.625 31.78125 34.625 
z
M 21.921875 38.8125 
Q 15.578125 40.375 12.03125 44.71875 
Q 8.5 49.078125 8.5 55.328125 
Q 8.5 64.0625 14.71875 69.140625 
Q 20.953125 74.21875 31.78125 74.21875 
Q 42.671875 74.21875 48.875 69.140625 
Q 55.078125 64.0625 55.078125 55.328125 
Q 55.078125 49.078125 51.53125 44.71875 
Q 48 40.375 41.703125 38.8125 
Q 48.828125 37.15625 52.796875 32.3125 
Q 56.78125 27.484375 56.78125 20.515625 
Q 56.78125 9.90625 50.3125 4.234375 
Q 43.84375 -1.421875 31.78125 -1.421875 
Q 19.734375 -1.421875 13.25 4.234375 
Q 6.78125 9.90625 6.78125 20.515625 
Q 6.78125 27.484375 10.78125 32.3125 
Q 14.796875 37.15625 21.921875 38.8125 
z
M 18.3125 54.390625 
Q 18.3125 48.734375 21.84375 45.5625 
Q 25.390625 42.390625 31.78125 42.390625 
Q 38.140625 42.390625 41.71875 45.5625 
Q 45.3125 48.734375 45.3125 54.390625 
Q 45.3125 60.0625 41.71875 63.234375 
Q 38.140625 66.40625 31.78125 66.40625 
Q 25.390625 66.40625 21.84375 63.234375 
Q 18.3125 60.0625 18.3125 54.390625 
z
" id="DejaVuSans-56"/>
      </defs>
      <g transform="translate(405.675893 334.998438)scale(0.1 -0.1)">
       <use xlink:href="#DejaVuSans-56"/>
      </g>
     </g>
    </g>
    <g id="xtick_6">
     <g id="line2d_6">
      <g>
       <use style="stroke:#000000;stroke-width:0.8;" x="488.571429" xlink:href="#m278f5d21bd" y="320.4"/>
      </g>
     </g>
     <g id="text_6">
      <!-- 10 -->
      <defs>
       <path d="M 12.40625 8.296875 
L 28.515625 8.296875 
L 28.515625 63.921875 
L 10.984375 60.40625 
L 10.984375 69.390625 
L 28.421875 72.90625 
L 38.28125 72.90625 
L 38.28125 8.296875 
L 54.390625 8.296875 
L 54.390625 0 
L 12.40625 0 
z
" id="DejaVuSans-49"/>
      </defs>
      <g transform="translate(482.208929 334.998438)scale(0.1 -0.1)">
       <use xlink:href="#DejaVuSans-49"/>
       <use x="63.623047" xlink:href="#DejaVuSans-48"/>
      </g>
     </g>
    </g>
    <g id="xtick_7">
     <g id="line2d_7">
      <g>
       <use style="stroke:#000000;stroke-width:0.8;" x="568.285714" xlink:href="#m278f5d21bd" y="320.4"/>
      </g>
     </g>
     <g id="text_7">
      <!-- 12 -->
      <g transform="translate(561.923214 334.998438)scale(0.1 -0.1)">
       <use xlink:href="#DejaVuSans-49"/>
       <use x="63.623047" xlink:href="#DejaVuSans-50"/>
      </g>
     </g>
    </g>
    <g id="xtick_8">
     <g id="line2d_8">
      <g>
       <use style="stroke:#000000;stroke-width:0.8;" x="648" xlink:href="#m278f5d21bd" y="320.4"/>
      </g>
     </g>
     <g id="text_8">
      <!-- 14 -->
      <g transform="translate(641.6375 334.998438)scale(0.1 -0.1)">
       <use xlink:href="#DejaVuSans-49"/>
       <use x="63.623047" xlink:href="#DejaVuSans-52"/>
      </g>
     </g>
    </g>
    <g id="text_9">
     <!-- Daily Sector Volume in Dollars (Billions) -->
     <defs>
      <path d="M 19.671875 64.796875 
L 19.671875 8.109375 
L 31.59375 8.109375 
Q 46.6875 8.109375 53.6875 14.9375 
Q 60.6875 21.78125 60.6875 36.53125 
Q 60.6875 51.171875 53.6875 57.984375 
Q 46.6875 64.796875 31.59375 64.796875 
z
M 9.8125 72.90625 
L 30.078125 72.90625 
Q 51.265625 72.90625 61.171875 64.09375 
Q 71.09375 55.28125 71.09375 36.53125 
Q 71.09375 17.671875 61.125 8.828125 
Q 51.171875 0 30.078125 0 
L 9.8125 0 
z
" id="DejaVuSans-68"/>
      <path d="M 34.28125 27.484375 
Q 23.390625 27.484375 19.1875 25 
Q 14.984375 22.515625 14.984375 16.5 
Q 14.984375 11.71875 18.140625 8.90625 
Q 21.296875 6.109375 26.703125 6.109375 
Q 34.1875 6.109375 38.703125 11.40625 
Q 43.21875 16.703125 43.21875 25.484375 
L 43.21875 27.484375 
z
M 52.203125 31.203125 
L 52.203125 0 
L 43.21875 0 
L 43.21875 8.296875 
Q 40.140625 3.328125 35.546875 0.953125 
Q 30.953125 -1.421875 24.3125 -1.421875 
Q 15.921875 -1.421875 10.953125 3.296875 
Q 6 8.015625 6 15.921875 
Q 6 25.140625 12.171875 29.828125 
Q 18.359375 34.515625 30.609375 34.515625 
L 43.21875 34.515625 
L 43.21875 35.40625 
Q 43.21875 41.609375 39.140625 45 
Q 35.0625 48.390625 27.6875 48.390625 
Q 23 48.390625 18.546875 47.265625 
Q 14.109375 46.140625 10.015625 43.890625 
L 10.015625 52.203125 
Q 14.9375 54.109375 19.578125 55.046875 
Q 24.21875 56 28.609375 56 
Q 40.484375 56 46.34375 49.84375 
Q 52.203125 43.703125 52.203125 31.203125 
z
" id="DejaVuSans-97"/>
      <path d="M 9.421875 54.6875 
L 18.40625 54.6875 
L 18.40625 0 
L 9.421875 0 
z
M 9.421875 75.984375 
L 18.40625 75.984375 
L 18.40625 64.59375 
L 9.421875 64.59375 
z
" id="DejaVuSans-105"/>
      <path d="M 9.421875 75.984375 
L 18.40625 75.984375 
L 18.40625 0 
L 9.421875 0 
z
" id="DejaVuSans-108"/>
      <path d="M 32.171875 -5.078125 
Q 28.375 -14.84375 24.75 -17.8125 
Q 21.140625 -20.796875 15.09375 -20.796875 
L 7.90625 -20.796875 
L 7.90625 -13.28125 
L 13.1875 -13.28125 
Q 16.890625 -13.28125 18.9375 -11.515625 
Q 21 -9.765625 23.484375 -3.21875 
L 25.09375 0.875 
L 2.984375 54.6875 
L 12.5 54.6875 
L 29.59375 11.921875 
L 46.6875 54.6875 
L 56.203125 54.6875 
z
" id="DejaVuSans-121"/>
      <path id="DejaVuSans-32"/>
      <path d="M 53.515625 70.515625 
L 53.515625 60.890625 
Q 47.90625 63.578125 42.921875 64.890625 
Q 37.9375 66.21875 33.296875 66.21875 
Q 25.25 66.21875 20.875 63.09375 
Q 16.5 59.96875 16.5 54.203125 
Q 16.5 49.359375 19.40625 46.890625 
Q 22.3125 44.4375 30.421875 42.921875 
L 36.375 41.703125 
Q 47.40625 39.59375 52.65625 34.296875 
Q 57.90625 29 57.90625 20.125 
Q 57.90625 9.515625 50.796875 4.046875 
Q 43.703125 -1.421875 29.984375 -1.421875 
Q 24.8125 -1.421875 18.96875 -0.25 
Q 13.140625 0.921875 6.890625 3.21875 
L 6.890625 13.375 
Q 12.890625 10.015625 18.65625 8.296875 
Q 24.421875 6.59375 29.984375 6.59375 
Q 38.421875 6.59375 43.015625 9.90625 
Q 47.609375 13.234375 47.609375 19.390625 
Q 47.609375 24.75 44.3125 27.78125 
Q 41.015625 30.8125 33.5 32.328125 
L 27.484375 33.5 
Q 16.453125 35.6875 11.515625 40.375 
Q 6.59375 45.0625 6.59375 53.421875 
Q 6.59375 63.09375 13.40625 68.65625 
Q 20.21875 74.21875 32.171875 74.21875 
Q 37.3125 74.21875 42.625 73.28125 
Q 47.953125 72.359375 53.515625 70.515625 
z
" id="DejaVuSans-83"/>
      <path d="M 56.203125 29.59375 
L 56.203125 25.203125 
L 14.890625 25.203125 
Q 15.484375 15.921875 20.484375 11.0625 
Q 25.484375 6.203125 34.421875 6.203125 
Q 39.59375 6.203125 44.453125 7.46875 
Q 49.3125 8.734375 54.109375 11.28125 
L 54.109375 2.78125 
Q 49.265625 0.734375 44.1875 -0.34375 
Q 39.109375 -1.421875 33.890625 -1.421875 
Q 20.796875 -1.421875 13.15625 6.1875 
Q 5.515625 13.8125 5.515625 26.8125 
Q 5.515625 40.234375 12.765625 48.109375 
Q 20.015625 56 32.328125 56 
Q 43.359375 56 49.78125 48.890625 
Q 56.203125 41.796875 56.203125 29.59375 
z
M 47.21875 32.234375 
Q 47.125 39.59375 43.09375 43.984375 
Q 39.0625 48.390625 32.421875 48.390625 
Q 24.90625 48.390625 20.390625 44.140625 
Q 15.875 39.890625 15.1875 32.171875 
z
" id="DejaVuSans-101"/>
      <path d="M 48.78125 52.59375 
L 48.78125 44.1875 
Q 44.96875 46.296875 41.140625 47.34375 
Q 37.3125 48.390625 33.40625 48.390625 
Q 24.65625 48.390625 19.8125 42.84375 
Q 14.984375 37.3125 14.984375 27.296875 
Q 14.984375 17.28125 19.8125 11.734375 
Q 24.65625 6.203125 33.40625 6.203125 
Q 37.3125 6.203125 41.140625 7.25 
Q 44.96875 8.296875 48.78125 10.40625 
L 48.78125 2.09375 
Q 45.015625 0.34375 40.984375 -0.53125 
Q 36.96875 -1.421875 32.421875 -1.421875 
Q 20.0625 -1.421875 12.78125 6.34375 
Q 5.515625 14.109375 5.515625 27.296875 
Q 5.515625 40.671875 12.859375 48.328125 
Q 20.21875 56 33.015625 56 
Q 37.15625 56 41.109375 55.140625 
Q 45.0625 54.296875 48.78125 52.59375 
z
" id="DejaVuSans-99"/>
      <path d="M 18.3125 70.21875 
L 18.3125 54.6875 
L 36.8125 54.6875 
L 36.8125 47.703125 
L 18.3125 47.703125 
L 18.3125 18.015625 
Q 18.3125 11.328125 20.140625 9.421875 
Q 21.96875 7.515625 27.59375 7.515625 
L 36.8125 7.515625 
L 36.8125 0 
L 27.59375 0 
Q 17.1875 0 13.234375 3.875 
Q 9.28125 7.765625 9.28125 18.015625 
L 9.28125 47.703125 
L 2.6875 47.703125 
L 2.6875 54.6875 
L 9.28125 54.6875 
L 9.28125 70.21875 
z
" id="DejaVuSans-116"/>
      <path d="M 30.609375 48.390625 
Q 23.390625 48.390625 19.1875 42.75 
Q 14.984375 37.109375 14.984375 27.296875 
Q 14.984375 17.484375 19.15625 11.84375 
Q 23.34375 6.203125 30.609375 6.203125 
Q 37.796875 6.203125 41.984375 11.859375 
Q 46.1875 17.53125 46.1875 27.296875 
Q 46.1875 37.015625 41.984375 42.703125 
Q 37.796875 48.390625 30.609375 48.390625 
z
M 30.609375 56 
Q 42.328125 56 49.015625 48.375 
Q 55.71875 40.765625 55.71875 27.296875 
Q 55.71875 13.875 49.015625 6.21875 
Q 42.328125 -1.421875 30.609375 -1.421875 
Q 18.84375 -1.421875 12.171875 6.21875 
Q 5.515625 13.875 5.515625 27.296875 
Q 5.515625 40.765625 12.171875 48.375 
Q 18.84375 56 30.609375 56 
z
" id="DejaVuSans-111"/>
      <path d="M 41.109375 46.296875 
Q 39.59375 47.171875 37.8125 47.578125 
Q 36.03125 48 33.890625 48 
Q 26.265625 48 22.1875 43.046875 
Q 18.109375 38.09375 18.109375 28.8125 
L 18.109375 0 
L 9.078125 0 
L 9.078125 54.6875 
L 18.109375 54.6875 
L 18.109375 46.1875 
Q 20.953125 51.171875 25.484375 53.578125 
Q 30.03125 56 36.53125 56 
Q 37.453125 56 38.578125 55.875 
Q 39.703125 55.765625 41.0625 55.515625 
z
" id="DejaVuSans-114"/>
      <path d="M 28.609375 0 
L 0.78125 72.90625 
L 11.078125 72.90625 
L 34.1875 11.53125 
L 57.328125 72.90625 
L 67.578125 72.90625 
L 39.796875 0 
z
" id="DejaVuSans-86"/>
      <path d="M 8.5 21.578125 
L 8.5 54.6875 
L 17.484375 54.6875 
L 17.484375 21.921875 
Q 17.484375 14.15625 20.5 10.265625 
Q 23.53125 6.390625 29.59375 6.390625 
Q 36.859375 6.390625 41.078125 11.03125 
Q 45.3125 15.671875 45.3125 23.6875 
L 45.3125 54.6875 
L 54.296875 54.6875 
L 54.296875 0 
L 45.3125 0 
L 45.3125 8.40625 
Q 42.046875 3.421875 37.71875 1 
Q 33.40625 -1.421875 27.6875 -1.421875 
Q 18.265625 -1.421875 13.375 4.4375 
Q 8.5 10.296875 8.5 21.578125 
z
M 31.109375 56 
z
" id="DejaVuSans-117"/>
      <path d="M 52 44.1875 
Q 55.375 50.25 60.0625 53.125 
Q 64.75 56 71.09375 56 
Q 79.640625 56 84.28125 50.015625 
Q 88.921875 44.046875 88.921875 33.015625 
L 88.921875 0 
L 79.890625 0 
L 79.890625 32.71875 
Q 79.890625 40.578125 77.09375 44.375 
Q 74.3125 48.1875 68.609375 48.1875 
Q 61.625 48.1875 57.5625 43.546875 
Q 53.515625 38.921875 53.515625 30.90625 
L 53.515625 0 
L 44.484375 0 
L 44.484375 32.71875 
Q 44.484375 40.625 41.703125 44.40625 
Q 38.921875 48.1875 33.109375 48.1875 
Q 26.21875 48.1875 22.15625 43.53125 
Q 18.109375 38.875 18.109375 30.90625 
L 18.109375 0 
L 9.078125 0 
L 9.078125 54.6875 
L 18.109375 54.6875 
L 18.109375 46.1875 
Q 21.1875 51.21875 25.484375 53.609375 
Q 29.78125 56 35.6875 56 
Q 41.65625 56 45.828125 52.96875 
Q 50 49.953125 52 44.1875 
z
" id="DejaVuSans-109"/>
      <path d="M 54.890625 33.015625 
L 54.890625 0 
L 45.90625 0 
L 45.90625 32.71875 
Q 45.90625 40.484375 42.875 44.328125 
Q 39.84375 48.1875 33.796875 48.1875 
Q 26.515625 48.1875 22.3125 43.546875 
Q 18.109375 38.921875 18.109375 30.90625 
L 18.109375 0 
L 9.078125 0 
L 9.078125 54.6875 
L 18.109375 54.6875 
L 18.109375 46.1875 
Q 21.34375 51.125 25.703125 53.5625 
Q 30.078125 56 35.796875 56 
Q 45.21875 56 50.046875 50.171875 
Q 54.890625 44.34375 54.890625 33.015625 
z
" id="DejaVuSans-110"/>
      <path d="M 44.28125 53.078125 
L 44.28125 44.578125 
Q 40.484375 46.53125 36.375 47.5 
Q 32.28125 48.484375 27.875 48.484375 
Q 21.1875 48.484375 17.84375 46.4375 
Q 14.5 44.390625 14.5 40.28125 
Q 14.5 37.15625 16.890625 35.375 
Q 19.28125 33.59375 26.515625 31.984375 
L 29.59375 31.296875 
Q 39.15625 29.25 43.1875 25.515625 
Q 47.21875 21.78125 47.21875 15.09375 
Q 47.21875 7.46875 41.1875 3.015625 
Q 35.15625 -1.421875 24.609375 -1.421875 
Q 20.21875 -1.421875 15.453125 -0.5625 
Q 10.6875 0.296875 5.421875 2 
L 5.421875 11.28125 
Q 10.40625 8.6875 15.234375 7.390625 
Q 20.0625 6.109375 24.8125 6.109375 
Q 31.15625 6.109375 34.5625 8.28125 
Q 37.984375 10.453125 37.984375 14.40625 
Q 37.984375 18.0625 35.515625 20.015625 
Q 33.0625 21.96875 24.703125 23.78125 
L 21.578125 24.515625 
Q 13.234375 26.265625 9.515625 29.90625 
Q 5.8125 33.546875 5.8125 39.890625 
Q 5.8125 47.609375 11.28125 51.796875 
Q 16.75 56 26.8125 56 
Q 31.78125 56 36.171875 55.265625 
Q 40.578125 54.546875 44.28125 53.078125 
z
" id="DejaVuSans-115"/>
      <path d="M 31 75.875 
Q 24.46875 64.65625 21.28125 53.65625 
Q 18.109375 42.671875 18.109375 31.390625 
Q 18.109375 20.125 21.3125 9.0625 
Q 24.515625 -2 31 -13.1875 
L 23.1875 -13.1875 
Q 15.875 -1.703125 12.234375 9.375 
Q 8.59375 20.453125 8.59375 31.390625 
Q 8.59375 42.28125 12.203125 53.3125 
Q 15.828125 64.359375 23.1875 75.875 
z
" id="DejaVuSans-40"/>
      <path d="M 19.671875 34.8125 
L 19.671875 8.109375 
L 35.5 8.109375 
Q 43.453125 8.109375 47.28125 11.40625 
Q 51.125 14.703125 51.125 21.484375 
Q 51.125 28.328125 47.28125 31.5625 
Q 43.453125 34.8125 35.5 34.8125 
z
M 19.671875 64.796875 
L 19.671875 42.828125 
L 34.28125 42.828125 
Q 41.5 42.828125 45.03125 45.53125 
Q 48.578125 48.25 48.578125 53.8125 
Q 48.578125 59.328125 45.03125 62.0625 
Q 41.5 64.796875 34.28125 64.796875 
z
M 9.8125 72.90625 
L 35.015625 72.90625 
Q 46.296875 72.90625 52.390625 68.21875 
Q 58.5 63.53125 58.5 54.890625 
Q 58.5 48.1875 55.375 44.234375 
Q 52.25 40.28125 46.1875 39.3125 
Q 53.46875 37.75 57.5 32.78125 
Q 61.53125 27.828125 61.53125 20.40625 
Q 61.53125 10.640625 54.890625 5.3125 
Q 48.25 0 35.984375 0 
L 9.8125 0 
z
" id="DejaVuSans-66"/>
      <path d="M 8.015625 75.875 
L 15.828125 75.875 
Q 23.140625 64.359375 26.78125 53.3125 
Q 30.421875 42.28125 30.421875 31.390625 
Q 30.421875 20.453125 26.78125 9.375 
Q 23.140625 -1.703125 15.828125 -13.1875 
L 8.015625 -13.1875 
Q 14.5 -2 17.703125 9.0625 
Q 20.90625 20.125 20.90625 31.390625 
Q 20.90625 42.671875 17.703125 53.65625 
Q 14.5 64.65625 8.015625 75.875 
z
" id="DejaVuSans-41"/>
     </defs>
     <g transform="translate(269.658594 348.676562)scale(0.1 -0.1)">
      <use xlink:href="#DejaVuSans-68"/>
      <use x="77.001953" xlink:href="#DejaVuSans-97"/>
      <use x="138.28125" xlink:href="#DejaVuSans-105"/>
      <use x="166.064453" xlink:href="#DejaVuSans-108"/>
      <use x="193.847656" xlink:href="#DejaVuSans-121"/>
      <use x="253.027344" xlink:href="#DejaVuSans-32"/>
      <use x="284.814453" xlink:href="#DejaVuSans-83"/>
      <use x="348.291016" xlink:href="#DejaVuSans-101"/>
      <use x="409.814453" xlink:href="#DejaVuSans-99"/>
      <use x="464.794922" xlink:href="#DejaVuSans-116"/>
      <use x="504.003906" xlink:href="#DejaVuSans-111"/>
      <use x="565.185547" xlink:href="#DejaVuSans-114"/>
      <use x="606.298828" xlink:href="#DejaVuSans-32"/>
      <use x="638.085938" xlink:href="#DejaVuSans-86"/>
      <use x="706.384766" xlink:href="#DejaVuSans-111"/>
      <use x="767.566406" xlink:href="#DejaVuSans-108"/>
      <use x="795.349609" xlink:href="#DejaVuSans-117"/>
      <use x="858.728516" xlink:href="#DejaVuSans-109"/>
      <use x="956.140625" xlink:href="#DejaVuSans-101"/>
      <use x="1017.664062" xlink:href="#DejaVuSans-32"/>
      <use x="1049.451172" xlink:href="#DejaVuSans-105"/>
      <use x="1077.234375" xlink:href="#DejaVuSans-110"/>
      <use x="1140.613281" xlink:href="#DejaVuSans-32"/>
      <use x="1172.400391" xlink:href="#DejaVuSans-68"/>
      <use x="1249.402344" xlink:href="#DejaVuSans-111"/>
      <use x="1310.583984" xlink:href="#DejaVuSans-108"/>
      <use x="1338.367188" xlink:href="#DejaVuSans-108"/>
      <use x="1366.150391" xlink:href="#DejaVuSans-97"/>
      <use x="1427.429688" xlink:href="#DejaVuSans-114"/>
      <use x="1468.542969" xlink:href="#DejaVuSans-115"/>
      <use x="1520.642578" xlink:href="#DejaVuSans-32"/>
      <use x="1552.429688" xlink:href="#DejaVuSans-40"/>
      <use x="1591.443359" xlink:href="#DejaVuSans-66"/>
      <use x="1660.046875" xlink:href="#DejaVuSans-105"/>
      <use x="1687.830078" xlink:href="#DejaVuSans-108"/>
      <use x="1715.613281" xlink:href="#DejaVuSans-108"/>
      <use x="1743.396484" xlink:href="#DejaVuSans-105"/>
      <use x="1771.179688" xlink:href="#DejaVuSans-111"/>
      <use x="1832.361328" xlink:href="#DejaVuSans-110"/>
      <use x="1895.740234" xlink:href="#DejaVuSans-115"/>
      <use x="1947.839844" xlink:href="#DejaVuSans-41"/>
     </g>
    </g>
   </g>
   <g id="matplotlib.axis_2">
    <g id="ytick_1">
     <g id="line2d_9">
      <defs>
       <path d="M 0 0 
L -3.5 0 
" id="m6837c4e635" style="stroke:#000000;stroke-width:0.8;"/>
      </defs>
      <g>
       <use style="stroke:#000000;stroke-width:0.8;" x="90" xlink:href="#m6837c4e635" y="292.68"/>
      </g>
     </g>
     <g id="text_10">
      <!-- 6 -->
      <defs>
       <path d="M 10.59375 35.5 
L 73.1875 35.5 
L 73.1875 27.203125 
L 10.59375 27.203125 
z
" id="DejaVuSans-8722"/>
      </defs>
      <g transform="translate(68.257812 296.479219)scale(0.1 -0.1)">
       <use xlink:href="#DejaVuSans-8722"/>
       <use x="83.789062" xlink:href="#DejaVuSans-54"/>
      </g>
     </g>
    </g>
    <g id="ytick_2">
     <g id="line2d_10">
      <g>
       <use style="stroke:#000000;stroke-width:0.8;" x="90" xlink:href="#m6837c4e635" y="255.72"/>
      </g>
     </g>
     <g id="text_11">
      <!-- 4 -->
      <g transform="translate(68.257812 259.519219)scale(0.1 -0.1)">
       <use xlink:href="#DejaVuSans-8722"/>
       <use x="83.789062" xlink:href="#DejaVuSans-52"/>
      </g>
     </g>
    </g>
    <g id="ytick_3">
     <g id="line2d_11">
      <g>
       <use style="stroke:#000000;stroke-width:0.8;" x="90" xlink:href="#m6837c4e635" y="218.76"/>
      </g>
     </g>
     <g id="text_12">
      <!-- 2 -->
      <g transform="translate(68.257812 222.559219)scale(0.1 -0.1)">
       <use xlink:href="#DejaVuSans-8722"/>
       <use x="83.789062" xlink:href="#DejaVuSans-50"/>
      </g>
     </g>
    </g>
    <g id="ytick_4">
     <g id="line2d_12">
      <g>
       <use style="stroke:#000000;stroke-width:0.8;" x="90" xlink:href="#m6837c4e635" y="181.8"/>
      </g>
     </g>
     <g id="text_13">
      <!-- 0 -->
      <g transform="translate(76.6375 185.599219)scale(0.1 -0.1)">
       <use xlink:href="#DejaVuSans-48"/>
      </g>
     </g>
    </g>
    <g id="ytick_5">
     <g id="line2d_13">
      <g>
       <use style="stroke:#000000;stroke-width:0.8;" x="90" xlink:href="#m6837c4e635" y="144.84"/>
      </g>
     </g>
     <g id="text_14">
      <!-- 2 -->
      <g transform="translate(76.6375 148.639219)scale(0.1 -0.1)">
       <use xlink:href="#DejaVuSans-50"/>
      </g>
     </g>
    </g>
    <g id="ytick_6">
     <g id="line2d_14">
      <g>
       <use style="stroke:#000000;stroke-width:0.8;" x="90" xlink:href="#m6837c4e635" y="107.88"/>
      </g>
     </g>
     <g id="text_15">
      <!-- 4 -->
      <g transform="translate(76.6375 111.679219)scale(0.1 -0.1)">
       <use xlink:href="#DejaVuSans-52"/>
      </g>
     </g>
    </g>
    <g id="ytick_7">
     <g id="line2d_15">
      <g>
       <use style="stroke:#000000;stroke-width:0.8;" x="90" xlink:href="#m6837c4e635" y="70.92"/>
      </g>
     </g>
     <g id="text_16">
      <!-- 6 -->
      <g transform="translate(76.6375 74.719219)scale(0.1 -0.1)">
       <use xlink:href="#DejaVuSans-54"/>
      </g>
     </g>
    </g>
    <g id="text_17">
     <!-- Daily Percent Change in Closing Value -->
     <defs>
      <path d="M 19.671875 64.796875 
L 19.671875 37.40625 
L 32.078125 37.40625 
Q 38.96875 37.40625 42.71875 40.96875 
Q 46.484375 44.53125 46.484375 51.125 
Q 46.484375 57.671875 42.71875 61.234375 
Q 38.96875 64.796875 32.078125 64.796875 
z
M 9.8125 72.90625 
L 32.078125 72.90625 
Q 44.34375 72.90625 50.609375 67.359375 
Q 56.890625 61.8125 56.890625 51.125 
Q 56.890625 40.328125 50.609375 34.8125 
Q 44.34375 29.296875 32.078125 29.296875 
L 19.671875 29.296875 
L 19.671875 0 
L 9.8125 0 
z
" id="DejaVuSans-80"/>
      <path d="M 64.40625 67.28125 
L 64.40625 56.890625 
Q 59.421875 61.53125 53.78125 63.8125 
Q 48.140625 66.109375 41.796875 66.109375 
Q 29.296875 66.109375 22.65625 58.46875 
Q 16.015625 50.828125 16.015625 36.375 
Q 16.015625 21.96875 22.65625 14.328125 
Q 29.296875 6.6875 41.796875 6.6875 
Q 48.140625 6.6875 53.78125 8.984375 
Q 59.421875 11.28125 64.40625 15.921875 
L 64.40625 5.609375 
Q 59.234375 2.09375 53.4375 0.328125 
Q 47.65625 -1.421875 41.21875 -1.421875 
Q 24.65625 -1.421875 15.125 8.703125 
Q 5.609375 18.84375 5.609375 36.375 
Q 5.609375 53.953125 15.125 64.078125 
Q 24.65625 74.21875 41.21875 74.21875 
Q 47.75 74.21875 53.53125 72.484375 
Q 59.328125 70.75 64.40625 67.28125 
z
" id="DejaVuSans-67"/>
      <path d="M 54.890625 33.015625 
L 54.890625 0 
L 45.90625 0 
L 45.90625 32.71875 
Q 45.90625 40.484375 42.875 44.328125 
Q 39.84375 48.1875 33.796875 48.1875 
Q 26.515625 48.1875 22.3125 43.546875 
Q 18.109375 38.921875 18.109375 30.90625 
L 18.109375 0 
L 9.078125 0 
L 9.078125 75.984375 
L 18.109375 75.984375 
L 18.109375 46.1875 
Q 21.34375 51.125 25.703125 53.5625 
Q 30.078125 56 35.796875 56 
Q 45.21875 56 50.046875 50.171875 
Q 54.890625 44.34375 54.890625 33.015625 
z
" id="DejaVuSans-104"/>
      <path d="M 45.40625 27.984375 
Q 45.40625 37.75 41.375 43.109375 
Q 37.359375 48.484375 30.078125 48.484375 
Q 22.859375 48.484375 18.828125 43.109375 
Q 14.796875 37.75 14.796875 27.984375 
Q 14.796875 18.265625 18.828125 12.890625 
Q 22.859375 7.515625 30.078125 7.515625 
Q 37.359375 7.515625 41.375 12.890625 
Q 45.40625 18.265625 45.40625 27.984375 
z
M 54.390625 6.78125 
Q 54.390625 -7.171875 48.1875 -13.984375 
Q 42 -20.796875 29.203125 -20.796875 
Q 24.46875 -20.796875 20.265625 -20.09375 
Q 16.0625 -19.390625 12.109375 -17.921875 
L 12.109375 -9.1875 
Q 16.0625 -11.328125 19.921875 -12.34375 
Q 23.78125 -13.375 27.78125 -13.375 
Q 36.625 -13.375 41.015625 -8.765625 
Q 45.40625 -4.15625 45.40625 5.171875 
L 45.40625 9.625 
Q 42.625 4.78125 38.28125 2.390625 
Q 33.9375 0 27.875 0 
Q 17.828125 0 11.671875 7.65625 
Q 5.515625 15.328125 5.515625 27.984375 
Q 5.515625 40.671875 11.671875 48.328125 
Q 17.828125 56 27.875 56 
Q 33.9375 56 38.28125 53.609375 
Q 42.625 51.21875 45.40625 46.390625 
L 45.40625 54.6875 
L 54.390625 54.6875 
z
" id="DejaVuSans-103"/>
     </defs>
     <g transform="translate(62.178125 277.585938)rotate(-90)scale(0.1 -0.1)">
      <use xlink:href="#DejaVuSans-68"/>
      <use x="77.001953" xlink:href="#DejaVuSans-97"/>
      <use x="138.28125" xlink:href="#DejaVuSans-105"/>
      <use x="166.064453" xlink:href="#DejaVuSans-108"/>
      <use x="193.847656" xlink:href="#DejaVuSans-121"/>
      <use x="253.027344" xlink:href="#DejaVuSans-32"/>
      <use x="284.814453" xlink:href="#DejaVuSans-80"/>
      <use x="345.070312" xlink:href="#DejaVuSans-101"/>
      <use x="406.59375" xlink:href="#DejaVuSans-114"/>
      <use x="447.675781" xlink:href="#DejaVuSans-99"/>
      <use x="502.65625" xlink:href="#DejaVuSans-101"/>
      <use x="564.179688" xlink:href="#DejaVuSans-110"/>
      <use x="627.558594" xlink:href="#DejaVuSans-116"/>
      <use x="666.767578" xlink:href="#DejaVuSans-32"/>
      <use x="698.554688" xlink:href="#DejaVuSans-67"/>
      <use x="768.378906" xlink:href="#DejaVuSans-104"/>
      <use x="831.757812" xlink:href="#DejaVuSans-97"/>
      <use x="893.037109" xlink:href="#DejaVuSans-110"/>
      <use x="956.416016" xlink:href="#DejaVuSans-103"/>
      <use x="1019.892578" xlink:href="#DejaVuSans-101"/>
      <use x="1081.416016" xlink:href="#DejaVuSans-32"/>
      <use x="1113.203125" xlink:href="#DejaVuSans-105"/>
      <use x="1140.986328" xlink:href="#DejaVuSans-110"/>
      <use x="1204.365234" xlink:href="#DejaVuSans-32"/>
      <use x="1236.152344" xlink:href="#DejaVuSans-67"/>
      <use x="1305.976562" xlink:href="#DejaVuSans-108"/>
      <use x="1333.759766" xlink:href="#DejaVuSans-111"/>
      <use x="1394.941406" xlink:href="#DejaVuSans-115"/>
      <use x="1447.041016" xlink:href="#DejaVuSans-105"/>
      <use x="1474.824219" xlink:href="#DejaVuSans-110"/>
      <use x="1538.203125" xlink:href="#DejaVuSans-103"/>
      <use x="1601.679688" xlink:href="#DejaVuSans-32"/>
      <use x="1633.466797" xlink:href="#DejaVuSans-86"/>
      <use x="1701.765625" xlink:href="#DejaVuSans-97"/>
      <use x="1763.044922" xlink:href="#DejaVuSans-108"/>
      <use x="1790.828125" xlink:href="#DejaVuSans-117"/>
      <use x="1854.207031" xlink:href="#DejaVuSans-101"/>
     </g>
    </g>
   </g>
   <g id="patch_3">
    <path d="M 90 320.4 
L 90 43.2 
" style="fill:none;stroke:#000000;stroke-linecap:square;stroke-linejoin:miter;stroke-width:0.8;"/>
   </g>
   <g id="patch_4">
    <path d="M 648 320.4 
L 648 43.2 
" style="fill:none;stroke:#000000;stroke-linecap:square;stroke-linejoin:miter;stroke-width:0.8;"/>
   </g>
   <g id="patch_5">
    <path d="M 90 320.4 
L 648 320.4 
" style="fill:none;stroke:#000000;stroke-linecap:square;stroke-linejoin:miter;stroke-width:0.8;"/>
   </g>
   <g id="patch_6">
    <path d="M 90 43.2 
L 648 43.2 
" style="fill:none;stroke:#000000;stroke-linecap:square;stroke-linejoin:miter;stroke-width:0.8;"/>
   </g>
   <g id="text_18">
    <!-- Centers: ['1.01867, 0.20323 ', '2.75602, -0.44040 ', '8.52695, 0.60278 '] -->
    <defs>
     <path d="M 11.71875 12.40625 
L 22.015625 12.40625 
L 22.015625 0 
L 11.71875 0 
z
M 11.71875 51.703125 
L 22.015625 51.703125 
L 22.015625 39.3125 
L 11.71875 39.3125 
z
" id="DejaVuSans-58"/>
     <path d="M 8.59375 75.984375 
L 29.296875 75.984375 
L 29.296875 69 
L 17.578125 69 
L 17.578125 -6.203125 
L 29.296875 -6.203125 
L 29.296875 -13.1875 
L 8.59375 -13.1875 
z
" id="DejaVuSans-91"/>
     <path d="M 17.921875 72.90625 
L 17.921875 45.796875 
L 9.625 45.796875 
L 9.625 72.90625 
z
" id="DejaVuSans-39"/>
     <path d="M 10.6875 12.40625 
L 21 12.40625 
L 21 0 
L 10.6875 0 
z
" id="DejaVuSans-46"/>
     <path d="M 8.203125 72.90625 
L 55.078125 72.90625 
L 55.078125 68.703125 
L 28.609375 0 
L 18.3125 0 
L 43.21875 64.59375 
L 8.203125 64.59375 
z
" id="DejaVuSans-55"/>
     <path d="M 11.71875 12.40625 
L 22.015625 12.40625 
L 22.015625 4 
L 14.015625 -11.625 
L 7.71875 -11.625 
L 11.71875 4 
z
" id="DejaVuSans-44"/>
     <path d="M 40.578125 39.3125 
Q 47.65625 37.796875 51.625 33 
Q 55.609375 28.21875 55.609375 21.1875 
Q 55.609375 10.40625 48.1875 4.484375 
Q 40.765625 -1.421875 27.09375 -1.421875 
Q 22.515625 -1.421875 17.65625 -0.515625 
Q 12.796875 0.390625 7.625 2.203125 
L 7.625 11.71875 
Q 11.71875 9.328125 16.59375 8.109375 
Q 21.484375 6.890625 26.8125 6.890625 
Q 36.078125 6.890625 40.9375 10.546875 
Q 45.796875 14.203125 45.796875 21.1875 
Q 45.796875 27.640625 41.28125 31.265625 
Q 36.765625 34.90625 28.71875 34.90625 
L 20.21875 34.90625 
L 20.21875 43.015625 
L 29.109375 43.015625 
Q 36.375 43.015625 40.234375 45.921875 
Q 44.09375 48.828125 44.09375 54.296875 
Q 44.09375 59.90625 40.109375 62.90625 
Q 36.140625 65.921875 28.71875 65.921875 
Q 24.65625 65.921875 20.015625 65.03125 
Q 15.375 64.15625 9.8125 62.3125 
L 9.8125 71.09375 
Q 15.4375 72.65625 20.34375 73.4375 
Q 25.25 74.21875 29.59375 74.21875 
Q 40.828125 74.21875 47.359375 69.109375 
Q 53.90625 64.015625 53.90625 55.328125 
Q 53.90625 49.265625 50.4375 45.09375 
Q 46.96875 40.921875 40.578125 39.3125 
z
" id="DejaVuSans-51"/>
     <path d="M 10.796875 72.90625 
L 49.515625 72.90625 
L 49.515625 64.59375 
L 19.828125 64.59375 
L 19.828125 46.734375 
Q 21.96875 47.46875 24.109375 47.828125 
Q 26.265625 48.1875 28.421875 48.1875 
Q 40.625 48.1875 47.75 41.5 
Q 54.890625 34.8125 54.890625 23.390625 
Q 54.890625 11.625 47.5625 5.09375 
Q 40.234375 -1.421875 26.90625 -1.421875 
Q 22.3125 -1.421875 17.546875 -0.640625 
Q 12.796875 0.140625 7.71875 1.703125 
L 7.71875 11.625 
Q 12.109375 9.234375 16.796875 8.0625 
Q 21.484375 6.890625 26.703125 6.890625 
Q 35.15625 6.890625 40.078125 11.328125 
Q 45.015625 15.765625 45.015625 23.390625 
Q 45.015625 31 40.078125 35.4375 
Q 35.15625 39.890625 26.703125 39.890625 
Q 22.75 39.890625 18.8125 39.015625 
Q 14.890625 38.140625 10.796875 36.28125 
z
" id="DejaVuSans-53"/>
     <path d="M 4.890625 31.390625 
L 31.203125 31.390625 
L 31.203125 23.390625 
L 4.890625 23.390625 
z
" id="DejaVuSans-45"/>
     <path d="M 10.984375 1.515625 
L 10.984375 10.5 
Q 14.703125 8.734375 18.5 7.8125 
Q 22.3125 6.890625 25.984375 6.890625 
Q 35.75 6.890625 40.890625 13.453125 
Q 46.046875 20.015625 46.78125 33.40625 
Q 43.953125 29.203125 39.59375 26.953125 
Q 35.25 24.703125 29.984375 24.703125 
Q 19.046875 24.703125 12.671875 31.3125 
Q 6.296875 37.9375 6.296875 49.421875 
Q 6.296875 60.640625 12.9375 67.421875 
Q 19.578125 74.21875 30.609375 74.21875 
Q 43.265625 74.21875 49.921875 64.515625 
Q 56.59375 54.828125 56.59375 36.375 
Q 56.59375 19.140625 48.40625 8.859375 
Q 40.234375 -1.421875 26.421875 -1.421875 
Q 22.703125 -1.421875 18.890625 -0.6875 
Q 15.09375 0.046875 10.984375 1.515625 
z
M 30.609375 32.421875 
Q 37.25 32.421875 41.125 36.953125 
Q 45.015625 41.5 45.015625 49.421875 
Q 45.015625 57.28125 41.125 61.84375 
Q 37.25 66.40625 30.609375 66.40625 
Q 23.96875 66.40625 20.09375 61.84375 
Q 16.21875 57.28125 16.21875 49.421875 
Q 16.21875 41.5 20.09375 36.953125 
Q 23.96875 32.421875 30.609375 32.421875 
z
" id="DejaVuSans-57"/>
     <path d="M 30.421875 75.984375 
L 30.421875 -13.1875 
L 9.71875 -13.1875 
L 9.71875 -6.203125 
L 21.390625 -6.203125 
L 21.390625 69 
L 9.71875 69 
L 9.71875 75.984375 
z
" id="DejaVuSans-93"/>
    </defs>
    <g transform="translate(90 40.428)scale(0.1 -0.1)">
     <use xlink:href="#DejaVuSans-67"/>
     <use x="69.824219" xlink:href="#DejaVuSans-101"/>
     <use x="131.347656" xlink:href="#DejaVuSans-110"/>
     <use x="194.726562" xlink:href="#DejaVuSans-116"/>
     <use x="233.935547" xlink:href="#DejaVuSans-101"/>
     <use x="295.458984" xlink:href="#DejaVuSans-114"/>
     <use x="336.572266" xlink:href="#DejaVuSans-115"/>
     <use x="388.671875" xlink:href="#DejaVuSans-58"/>
     <use x="422.363281" xlink:href="#DejaVuSans-32"/>
     <use x="454.150391" xlink:href="#DejaVuSans-91"/>
     <use x="493.164062" xlink:href="#DejaVuSans-39"/>
     <use x="520.654297" xlink:href="#DejaVuSans-49"/>
     <use x="584.277344" xlink:href="#DejaVuSans-46"/>
     <use x="616.064453" xlink:href="#DejaVuSans-48"/>
     <use x="679.6875" xlink:href="#DejaVuSans-49"/>
     <use x="743.310547" xlink:href="#DejaVuSans-56"/>
     <use x="806.933594" xlink:href="#DejaVuSans-54"/>
     <use x="870.556641" xlink:href="#DejaVuSans-55"/>
     <use x="934.179688" xlink:href="#DejaVuSans-44"/>
     <use x="965.966797" xlink:href="#DejaVuSans-32"/>
     <use x="997.753906" xlink:href="#DejaVuSans-48"/>
     <use x="1061.376953" xlink:href="#DejaVuSans-46"/>
     <use x="1093.164062" xlink:href="#DejaVuSans-50"/>
     <use x="1156.787109" xlink:href="#DejaVuSans-48"/>
     <use x="1220.410156" xlink:href="#DejaVuSans-51"/>
     <use x="1284.033203" xlink:href="#DejaVuSans-50"/>
     <use x="1347.65625" xlink:href="#DejaVuSans-51"/>
     <use x="1411.279297" xlink:href="#DejaVuSans-32"/>
     <use x="1443.066406" xlink:href="#DejaVuSans-39"/>
     <use x="1470.556641" xlink:href="#DejaVuSans-44"/>
     <use x="1502.34375" xlink:href="#DejaVuSans-32"/>
     <use x="1534.130859" xlink:href="#DejaVuSans-39"/>
     <use x="1561.621094" xlink:href="#DejaVuSans-50"/>
     <use x="1625.244141" xlink:href="#DejaVuSans-46"/>
     <use x="1657.03125" xlink:href="#DejaVuSans-55"/>
     <use x="1720.654297" xlink:href="#DejaVuSans-53"/>
     <use x="1784.277344" xlink:href="#DejaVuSans-54"/>
     <use x="1847.900391" xlink:href="#DejaVuSans-48"/>
     <use x="1911.523438" xlink:href="#DejaVuSans-50"/>
     <use x="1975.146484" xlink:href="#DejaVuSans-44"/>
     <use x="2006.933594" xlink:href="#DejaVuSans-32"/>
     <use x="2038.720703" xlink:href="#DejaVuSans-45"/>
     <use x="2074.804688" xlink:href="#DejaVuSans-48"/>
     <use x="2138.427734" xlink:href="#DejaVuSans-46"/>
     <use x="2170.214844" xlink:href="#DejaVuSans-52"/>
     <use x="2233.837891" xlink:href="#DejaVuSans-52"/>
     <use x="2297.460938" xlink:href="#DejaVuSans-48"/>
     <use x="2361.083984" xlink:href="#DejaVuSans-52"/>
     <use x="2424.707031" xlink:href="#DejaVuSans-48"/>
     <use x="2488.330078" xlink:href="#DejaVuSans-32"/>
     <use x="2520.117188" xlink:href="#DejaVuSans-39"/>
     <use x="2547.607422" xlink:href="#DejaVuSans-44"/>
     <use x="2579.394531" xlink:href="#DejaVuSans-32"/>
     <use x="2611.181641" xlink:href="#DejaVuSans-39"/>
     <use x="2638.671875" xlink:href="#DejaVuSans-56"/>
     <use x="2702.294922" xlink:href="#DejaVuSans-46"/>
     <use x="2734.082031" xlink:href="#DejaVuSans-53"/>
     <use x="2797.705078" xlink:href="#DejaVuSans-50"/>
     <use x="2861.328125" xlink:href="#DejaVuSans-54"/>
     <use x="2924.951172" xlink:href="#DejaVuSans-57"/>
     <use x="2988.574219" xlink:href="#DejaVuSans-53"/>
     <use x="3052.197266" xlink:href="#DejaVuSans-44"/>
     <use x="3083.984375" xlink:href="#DejaVuSans-32"/>
     <use x="3115.771484" xlink:href="#DejaVuSans-48"/>
     <use x="3179.394531" xlink:href="#DejaVuSans-46"/>
     <use x="3211.181641" xlink:href="#DejaVuSans-54"/>
     <use x="3274.804688" xlink:href="#DejaVuSans-48"/>
     <use x="3338.427734" xlink:href="#DejaVuSans-50"/>
     <use x="3402.050781" xlink:href="#DejaVuSans-55"/>
     <use x="3465.673828" xlink:href="#DejaVuSans-56"/>
     <use x="3529.296875" xlink:href="#DejaVuSans-32"/>
     <use x="3561.083984" xlink:href="#DejaVuSans-39"/>
     <use x="3588.574219" xlink:href="#DejaVuSans-93"/>
    </g>
   </g>
   <g id="legend_1">
    <g id="patch_7">
     <path d="M 175.682176 316.235 
L 562.317824 316.235 
Q 563.983824 316.235 563.983824 314.569 
L 563.983824 266.494487 
Q 563.983824 264.828487 562.317824 264.828487 
L 175.682176 264.828487 
Q 174.016176 264.828487 174.016176 266.494487 
L 174.016176 314.569 
Q 174.016176 316.235 175.682176 316.235 
z
" style="fill:#ffffff;opacity:0.8;stroke:#cccccc;stroke-linejoin:miter;"/>
    </g>
    <g id="PathCollection_12">
     <g>
      <use style="fill:#ff0000;stroke:#ff0000;" x="185.678176" xlink:href="#mbe9bbe036c" y="272.303361"/>
     </g>
    </g>
    <g id="text_19">
     <!-- Financials -->
     <defs>
      <path d="M 9.8125 72.90625 
L 51.703125 72.90625 
L 51.703125 64.59375 
L 19.671875 64.59375 
L 19.671875 43.109375 
L 48.578125 43.109375 
L 48.578125 34.8125 
L 19.671875 34.8125 
L 19.671875 0 
L 9.8125 0 
z
" id="DejaVuSans-70"/>
     </defs>
     <g transform="translate(200.672176 274.489986)scale(0.0833 -0.0833)">
      <use xlink:href="#DejaVuSans-70"/>
      <use x="57.410156" xlink:href="#DejaVuSans-105"/>
      <use x="85.193359" xlink:href="#DejaVuSans-110"/>
      <use x="148.572266" xlink:href="#DejaVuSans-97"/>
      <use x="209.851562" xlink:href="#DejaVuSans-110"/>
      <use x="273.230469" xlink:href="#DejaVuSans-99"/>
      <use x="328.210938" xlink:href="#DejaVuSans-105"/>
      <use x="355.994141" xlink:href="#DejaVuSans-97"/>
      <use x="417.273438" xlink:href="#DejaVuSans-108"/>
      <use x="445.056641" xlink:href="#DejaVuSans-115"/>
     </g>
    </g>
    <g id="PathCollection_13">
     <g>
      <use style="fill:#ff8c00;stroke:#ff8c00;" x="185.678176" xlink:href="#mdecfd93fb0" y="284.530239"/>
     </g>
    </g>
    <g id="text_20">
     <!-- Materials -->
     <defs>
      <path d="M 9.8125 72.90625 
L 24.515625 72.90625 
L 43.109375 23.296875 
L 61.8125 72.90625 
L 76.515625 72.90625 
L 76.515625 0 
L 66.890625 0 
L 66.890625 64.015625 
L 48.09375 14.015625 
L 38.1875 14.015625 
L 19.390625 64.015625 
L 19.390625 0 
L 9.8125 0 
z
" id="DejaVuSans-77"/>
     </defs>
     <g transform="translate(200.672176 286.716864)scale(0.0833 -0.0833)">
      <use xlink:href="#DejaVuSans-77"/>
      <use x="86.279297" xlink:href="#DejaVuSans-97"/>
      <use x="147.558594" xlink:href="#DejaVuSans-116"/>
      <use x="186.767578" xlink:href="#DejaVuSans-101"/>
      <use x="248.291016" xlink:href="#DejaVuSans-114"/>
      <use x="289.404297" xlink:href="#DejaVuSans-105"/>
      <use x="317.1875" xlink:href="#DejaVuSans-97"/>
      <use x="378.466797" xlink:href="#DejaVuSans-108"/>
      <use x="406.25" xlink:href="#DejaVuSans-115"/>
     </g>
    </g>
    <g id="PathCollection_14">
     <g>
      <use style="fill:#ffff00;stroke:#ffff00;" x="185.678176" xlink:href="#m73aae1f73d" y="296.757117"/>
     </g>
    </g>
    <g id="text_21">
     <!-- Consumer Staples -->
     <defs>
      <path d="M 18.109375 8.203125 
L 18.109375 -20.796875 
L 9.078125 -20.796875 
L 9.078125 54.6875 
L 18.109375 54.6875 
L 18.109375 46.390625 
Q 20.953125 51.265625 25.265625 53.625 
Q 29.59375 56 35.59375 56 
Q 45.5625 56 51.78125 48.09375 
Q 58.015625 40.1875 58.015625 27.296875 
Q 58.015625 14.40625 51.78125 6.484375 
Q 45.5625 -1.421875 35.59375 -1.421875 
Q 29.59375 -1.421875 25.265625 0.953125 
Q 20.953125 3.328125 18.109375 8.203125 
z
M 48.6875 27.296875 
Q 48.6875 37.203125 44.609375 42.84375 
Q 40.53125 48.484375 33.40625 48.484375 
Q 26.265625 48.484375 22.1875 42.84375 
Q 18.109375 37.203125 18.109375 27.296875 
Q 18.109375 17.390625 22.1875 11.75 
Q 26.265625 6.109375 33.40625 6.109375 
Q 40.53125 6.109375 44.609375 11.75 
Q 48.6875 17.390625 48.6875 27.296875 
z
" id="DejaVuSans-112"/>
     </defs>
     <g transform="translate(200.672176 298.943742)scale(0.0833 -0.0833)">
      <use xlink:href="#DejaVuSans-67"/>
      <use x="69.824219" xlink:href="#DejaVuSans-111"/>
      <use x="131.005859" xlink:href="#DejaVuSans-110"/>
      <use x="194.384766" xlink:href="#DejaVuSans-115"/>
      <use x="246.484375" xlink:href="#DejaVuSans-117"/>
      <use x="309.863281" xlink:href="#DejaVuSans-109"/>
      <use x="407.275391" xlink:href="#DejaVuSans-101"/>
      <use x="468.798828" xlink:href="#DejaVuSans-114"/>
      <use x="509.912109" xlink:href="#DejaVuSans-32"/>
      <use x="541.699219" xlink:href="#DejaVuSans-83"/>
      <use x="605.175781" xlink:href="#DejaVuSans-116"/>
      <use x="644.384766" xlink:href="#DejaVuSans-97"/>
      <use x="705.664062" xlink:href="#DejaVuSans-112"/>
      <use x="769.140625" xlink:href="#DejaVuSans-108"/>
      <use x="796.923828" xlink:href="#DejaVuSans-101"/>
      <use x="858.447266" xlink:href="#DejaVuSans-115"/>
     </g>
    </g>
    <g id="PathCollection_15">
     <g>
      <use style="fill:#98fb98;stroke:#98fb98;" x="185.678176" xlink:href="#mb71fee56ca" y="308.983995"/>
     </g>
    </g>
    <g id="text_22">
     <!-- Industrials -->
     <defs>
      <path d="M 9.8125 72.90625 
L 19.671875 72.90625 
L 19.671875 0 
L 9.8125 0 
z
" id="DejaVuSans-73"/>
      <path d="M 45.40625 46.390625 
L 45.40625 75.984375 
L 54.390625 75.984375 
L 54.390625 0 
L 45.40625 0 
L 45.40625 8.203125 
Q 42.578125 3.328125 38.25 0.953125 
Q 33.9375 -1.421875 27.875 -1.421875 
Q 17.96875 -1.421875 11.734375 6.484375 
Q 5.515625 14.40625 5.515625 27.296875 
Q 5.515625 40.1875 11.734375 48.09375 
Q 17.96875 56 27.875 56 
Q 33.9375 56 38.25 53.625 
Q 42.578125 51.265625 45.40625 46.390625 
z
M 14.796875 27.296875 
Q 14.796875 17.390625 18.875 11.75 
Q 22.953125 6.109375 30.078125 6.109375 
Q 37.203125 6.109375 41.296875 11.75 
Q 45.40625 17.390625 45.40625 27.296875 
Q 45.40625 37.203125 41.296875 42.84375 
Q 37.203125 48.484375 30.078125 48.484375 
Q 22.953125 48.484375 18.875 42.84375 
Q 14.796875 37.203125 14.796875 27.296875 
z
" id="DejaVuSans-100"/>
     </defs>
     <g transform="translate(200.672176 311.17062)scale(0.0833 -0.0833)">
      <use xlink:href="#DejaVuSans-73"/>
      <use x="29.492188" xlink:href="#DejaVuSans-110"/>
      <use x="92.871094" xlink:href="#DejaVuSans-100"/>
      <use x="156.347656" xlink:href="#DejaVuSans-117"/>
      <use x="219.726562" xlink:href="#DejaVuSans-115"/>
      <use x="271.826172" xlink:href="#DejaVuSans-116"/>
      <use x="311.035156" xlink:href="#DejaVuSans-114"/>
      <use x="352.148438" xlink:href="#DejaVuSans-105"/>
      <use x="379.931641" xlink:href="#DejaVuSans-97"/>
      <use x="441.210938" xlink:href="#DejaVuSans-108"/>
      <use x="468.994141" xlink:href="#DejaVuSans-115"/>
     </g>
    </g>
    <g id="PathCollection_16">
     <g>
      <use style="fill:#006400;stroke:#006400;" x="301.51073" xlink:href="#md1de26d924" y="272.303361"/>
     </g>
    </g>
    <g id="text_23">
     <!-- Information Technology -->
     <defs>
      <path d="M 37.109375 75.984375 
L 37.109375 68.5 
L 28.515625 68.5 
Q 23.6875 68.5 21.796875 66.546875 
Q 19.921875 64.59375 19.921875 59.515625 
L 19.921875 54.6875 
L 34.71875 54.6875 
L 34.71875 47.703125 
L 19.921875 47.703125 
L 19.921875 0 
L 10.890625 0 
L 10.890625 47.703125 
L 2.296875 47.703125 
L 2.296875 54.6875 
L 10.890625 54.6875 
L 10.890625 58.5 
Q 10.890625 67.625 15.140625 71.796875 
Q 19.390625 75.984375 28.609375 75.984375 
z
" id="DejaVuSans-102"/>
      <path d="M -0.296875 72.90625 
L 61.375 72.90625 
L 61.375 64.59375 
L 35.5 64.59375 
L 35.5 0 
L 25.59375 0 
L 25.59375 64.59375 
L -0.296875 64.59375 
z
" id="DejaVuSans-84"/>
     </defs>
     <g transform="translate(316.50473 274.489986)scale(0.0833 -0.0833)">
      <use xlink:href="#DejaVuSans-73"/>
      <use x="29.492188" xlink:href="#DejaVuSans-110"/>
      <use x="92.871094" xlink:href="#DejaVuSans-102"/>
      <use x="128.076172" xlink:href="#DejaVuSans-111"/>
      <use x="189.257812" xlink:href="#DejaVuSans-114"/>
      <use x="230.355469" xlink:href="#DejaVuSans-109"/>
      <use x="327.767578" xlink:href="#DejaVuSans-97"/>
      <use x="389.046875" xlink:href="#DejaVuSans-116"/>
      <use x="428.255859" xlink:href="#DejaVuSans-105"/>
      <use x="456.039062" xlink:href="#DejaVuSans-111"/>
      <use x="517.220703" xlink:href="#DejaVuSans-110"/>
      <use x="580.599609" xlink:href="#DejaVuSans-32"/>
      <use x="612.386719" xlink:href="#DejaVuSans-84"/>
      <use x="673.205078" xlink:href="#DejaVuSans-101"/>
      <use x="734.728516" xlink:href="#DejaVuSans-99"/>
      <use x="789.708984" xlink:href="#DejaVuSans-104"/>
      <use x="853.087891" xlink:href="#DejaVuSans-110"/>
      <use x="916.466797" xlink:href="#DejaVuSans-111"/>
      <use x="977.648438" xlink:href="#DejaVuSans-108"/>
      <use x="1005.431641" xlink:href="#DejaVuSans-111"/>
      <use x="1066.613281" xlink:href="#DejaVuSans-103"/>
      <use x="1130.089844" xlink:href="#DejaVuSans-121"/>
     </g>
    </g>
    <g id="PathCollection_17">
     <g>
      <use style="fill:#000080;stroke:#000080;" x="301.51073" xlink:href="#m1f2c138185" y="284.530239"/>
     </g>
    </g>
    <g id="text_24">
     <!-- Consumer Discretionary -->
     <g transform="translate(316.50473 286.716864)scale(0.0833 -0.0833)">
      <use xlink:href="#DejaVuSans-67"/>
      <use x="69.824219" xlink:href="#DejaVuSans-111"/>
      <use x="131.005859" xlink:href="#DejaVuSans-110"/>
      <use x="194.384766" xlink:href="#DejaVuSans-115"/>
      <use x="246.484375" xlink:href="#DejaVuSans-117"/>
      <use x="309.863281" xlink:href="#DejaVuSans-109"/>
      <use x="407.275391" xlink:href="#DejaVuSans-101"/>
      <use x="468.798828" xlink:href="#DejaVuSans-114"/>
      <use x="509.912109" xlink:href="#DejaVuSans-32"/>
      <use x="541.699219" xlink:href="#DejaVuSans-68"/>
      <use x="618.701172" xlink:href="#DejaVuSans-105"/>
      <use x="646.484375" xlink:href="#DejaVuSans-115"/>
      <use x="698.583984" xlink:href="#DejaVuSans-99"/>
      <use x="753.564453" xlink:href="#DejaVuSans-114"/>
      <use x="794.646484" xlink:href="#DejaVuSans-101"/>
      <use x="856.169922" xlink:href="#DejaVuSans-116"/>
      <use x="895.378906" xlink:href="#DejaVuSans-105"/>
      <use x="923.162109" xlink:href="#DejaVuSans-111"/>
      <use x="984.34375" xlink:href="#DejaVuSans-110"/>
      <use x="1047.722656" xlink:href="#DejaVuSans-97"/>
      <use x="1109.001953" xlink:href="#DejaVuSans-114"/>
      <use x="1150.115234" xlink:href="#DejaVuSans-121"/>
     </g>
    </g>
    <g id="PathCollection_18">
     <g>
      <use style="fill:#87ceeb;stroke:#87ceeb;" x="301.51073" xlink:href="#m2d856dbea2" y="296.757117"/>
     </g>
    </g>
    <g id="text_25">
     <!-- Energy -->
     <defs>
      <path d="M 9.8125 72.90625 
L 55.90625 72.90625 
L 55.90625 64.59375 
L 19.671875 64.59375 
L 19.671875 43.015625 
L 54.390625 43.015625 
L 54.390625 34.71875 
L 19.671875 34.71875 
L 19.671875 8.296875 
L 56.78125 8.296875 
L 56.78125 0 
L 9.8125 0 
z
" id="DejaVuSans-69"/>
     </defs>
     <g transform="translate(316.50473 298.943742)scale(0.0833 -0.0833)">
      <use xlink:href="#DejaVuSans-69"/>
      <use x="63.183594" xlink:href="#DejaVuSans-110"/>
      <use x="126.5625" xlink:href="#DejaVuSans-101"/>
      <use x="188.085938" xlink:href="#DejaVuSans-114"/>
      <use x="229.183594" xlink:href="#DejaVuSans-103"/>
      <use x="292.660156" xlink:href="#DejaVuSans-121"/>
     </g>
    </g>
    <g id="PathCollection_19">
     <g>
      <use style="fill:#bf00bf;stroke:#bf00bf;" x="442.227859" xlink:href="#mf85a93c46e" y="272.303361"/>
     </g>
    </g>
    <g id="text_26">
     <!-- Health Care -->
     <defs>
      <path d="M 9.8125 72.90625 
L 19.671875 72.90625 
L 19.671875 43.015625 
L 55.515625 43.015625 
L 55.515625 72.90625 
L 65.375 72.90625 
L 65.375 0 
L 55.515625 0 
L 55.515625 34.71875 
L 19.671875 34.71875 
L 19.671875 0 
L 9.8125 0 
z
" id="DejaVuSans-72"/>
     </defs>
     <g transform="translate(457.221859 274.489986)scale(0.0833 -0.0833)">
      <use xlink:href="#DejaVuSans-72"/>
      <use x="75.195312" xlink:href="#DejaVuSans-101"/>
      <use x="136.71875" xlink:href="#DejaVuSans-97"/>
      <use x="197.998047" xlink:href="#DejaVuSans-108"/>
      <use x="225.78125" xlink:href="#DejaVuSans-116"/>
      <use x="264.990234" xlink:href="#DejaVuSans-104"/>
      <use x="328.369141" xlink:href="#DejaVuSans-32"/>
      <use x="360.15625" xlink:href="#DejaVuSans-67"/>
      <use x="429.980469" xlink:href="#DejaVuSans-97"/>
      <use x="491.259766" xlink:href="#DejaVuSans-114"/>
      <use x="532.341797" xlink:href="#DejaVuSans-101"/>
     </g>
    </g>
    <g id="PathCollection_20">
     <g>
      <use style="fill:#00bfbf;stroke:#00bfbf;" x="442.227859" xlink:href="#m3aba720f83" y="284.530239"/>
     </g>
    </g>
    <g id="text_27">
     <!-- Communication Services -->
     <defs>
      <path d="M 2.984375 54.6875 
L 12.5 54.6875 
L 29.59375 8.796875 
L 46.6875 54.6875 
L 56.203125 54.6875 
L 35.6875 0 
L 23.484375 0 
z
" id="DejaVuSans-118"/>
     </defs>
     <g transform="translate(457.221859 286.716864)scale(0.0833 -0.0833)">
      <use xlink:href="#DejaVuSans-67"/>
      <use x="69.824219" xlink:href="#DejaVuSans-111"/>
      <use x="131.005859" xlink:href="#DejaVuSans-109"/>
      <use x="228.417969" xlink:href="#DejaVuSans-109"/>
      <use x="325.830078" xlink:href="#DejaVuSans-117"/>
      <use x="389.208984" xlink:href="#DejaVuSans-110"/>
      <use x="452.587891" xlink:href="#DejaVuSans-105"/>
      <use x="480.371094" xlink:href="#DejaVuSans-99"/>
      <use x="535.351562" xlink:href="#DejaVuSans-97"/>
      <use x="596.630859" xlink:href="#DejaVuSans-116"/>
      <use x="635.839844" xlink:href="#DejaVuSans-105"/>
      <use x="663.623047" xlink:href="#DejaVuSans-111"/>
      <use x="724.804688" xlink:href="#DejaVuSans-110"/>
      <use x="788.183594" xlink:href="#DejaVuSans-32"/>
      <use x="819.970703" xlink:href="#DejaVuSans-83"/>
      <use x="883.447266" xlink:href="#DejaVuSans-101"/>
      <use x="944.970703" xlink:href="#DejaVuSans-114"/>
      <use x="986.083984" xlink:href="#DejaVuSans-118"/>
      <use x="1045.263672" xlink:href="#DejaVuSans-105"/>
      <use x="1073.046875" xlink:href="#DejaVuSans-99"/>
      <use x="1128.027344" xlink:href="#DejaVuSans-101"/>
      <use x="1189.550781" xlink:href="#DejaVuSans-115"/>
     </g>
    </g>
    <g id="PathCollection_21">
     <g>
      <use style="fill:#2f4f4f;stroke:#2f4f4f;" x="442.227859" xlink:href="#me22329e6ab" y="296.757117"/>
     </g>
    </g>
    <g id="text_28">
     <!-- Consumer Cyclical -->
     <g transform="translate(457.221859 298.943742)scale(0.0833 -0.0833)">
      <use xlink:href="#DejaVuSans-67"/>
      <use x="69.824219" xlink:href="#DejaVuSans-111"/>
      <use x="131.005859" xlink:href="#DejaVuSans-110"/>
      <use x="194.384766" xlink:href="#DejaVuSans-115"/>
      <use x="246.484375" xlink:href="#DejaVuSans-117"/>
      <use x="309.863281" xlink:href="#DejaVuSans-109"/>
      <use x="407.275391" xlink:href="#DejaVuSans-101"/>
      <use x="468.798828" xlink:href="#DejaVuSans-114"/>
      <use x="509.912109" xlink:href="#DejaVuSans-32"/>
      <use x="541.699219" xlink:href="#DejaVuSans-67"/>
      <use x="611.523438" xlink:href="#DejaVuSans-121"/>
      <use x="670.703125" xlink:href="#DejaVuSans-99"/>
      <use x="725.683594" xlink:href="#DejaVuSans-108"/>
      <use x="753.466797" xlink:href="#DejaVuSans-105"/>
      <use x="781.25" xlink:href="#DejaVuSans-99"/>
      <use x="836.230469" xlink:href="#DejaVuSans-97"/>
      <use x="897.509766" xlink:href="#DejaVuSans-108"/>
     </g>
    </g>
   </g>
  </g>
  <g id="text_29">
   <!-- Democrat to Republican- Pre Election -->
   <defs>
    <path d="M 44.390625 34.1875 
Q 47.5625 33.109375 50.5625 29.59375 
Q 53.5625 26.078125 56.59375 19.921875 
L 66.609375 0 
L 56 0 
L 46.6875 18.703125 
Q 43.0625 26.03125 39.671875 28.421875 
Q 36.28125 30.8125 30.421875 30.8125 
L 19.671875 30.8125 
L 19.671875 0 
L 9.8125 0 
L 9.8125 72.90625 
L 32.078125 72.90625 
Q 44.578125 72.90625 50.734375 67.671875 
Q 56.890625 62.453125 56.890625 51.90625 
Q 56.890625 45.015625 53.6875 40.46875 
Q 50.484375 35.9375 44.390625 34.1875 
z
M 19.671875 64.796875 
L 19.671875 38.921875 
L 32.078125 38.921875 
Q 39.203125 38.921875 42.84375 42.21875 
Q 46.484375 45.515625 46.484375 51.90625 
Q 46.484375 58.296875 42.84375 61.546875 
Q 39.203125 64.796875 32.078125 64.796875 
z
" id="DejaVuSans-82"/>
    <path d="M 48.6875 27.296875 
Q 48.6875 37.203125 44.609375 42.84375 
Q 40.53125 48.484375 33.40625 48.484375 
Q 26.265625 48.484375 22.1875 42.84375 
Q 18.109375 37.203125 18.109375 27.296875 
Q 18.109375 17.390625 22.1875 11.75 
Q 26.265625 6.109375 33.40625 6.109375 
Q 40.53125 6.109375 44.609375 11.75 
Q 48.6875 17.390625 48.6875 27.296875 
z
M 18.109375 46.390625 
Q 20.953125 51.265625 25.265625 53.625 
Q 29.59375 56 35.59375 56 
Q 45.5625 56 51.78125 48.09375 
Q 58.015625 40.1875 58.015625 27.296875 
Q 58.015625 14.40625 51.78125 6.484375 
Q 45.5625 -1.421875 35.59375 -1.421875 
Q 29.59375 -1.421875 25.265625 0.953125 
Q 20.953125 3.328125 18.109375 8.203125 
L 18.109375 0 
L 9.078125 0 
L 9.078125 75.984375 
L 18.109375 75.984375 
z
" id="DejaVuSans-98"/>
   </defs>
   <g transform="translate(247.456875 16.318125)scale(0.12 -0.12)">
    <use xlink:href="#DejaVuSans-68"/>
    <use x="77.001953" xlink:href="#DejaVuSans-101"/>
    <use x="138.525391" xlink:href="#DejaVuSans-109"/>
    <use x="235.9375" xlink:href="#DejaVuSans-111"/>
    <use x="297.119141" xlink:href="#DejaVuSans-99"/>
    <use x="352.099609" xlink:href="#DejaVuSans-114"/>
    <use x="393.212891" xlink:href="#DejaVuSans-97"/>
    <use x="454.492188" xlink:href="#DejaVuSans-116"/>
    <use x="493.701172" xlink:href="#DejaVuSans-32"/>
    <use x="525.488281" xlink:href="#DejaVuSans-116"/>
    <use x="564.697266" xlink:href="#DejaVuSans-111"/>
    <use x="625.878906" xlink:href="#DejaVuSans-32"/>
    <use x="657.666016" xlink:href="#DejaVuSans-82"/>
    <use x="727.085938" xlink:href="#DejaVuSans-101"/>
    <use x="788.609375" xlink:href="#DejaVuSans-112"/>
    <use x="852.085938" xlink:href="#DejaVuSans-117"/>
    <use x="915.464844" xlink:href="#DejaVuSans-98"/>
    <use x="978.941406" xlink:href="#DejaVuSans-108"/>
    <use x="1006.724609" xlink:href="#DejaVuSans-105"/>
    <use x="1034.507812" xlink:href="#DejaVuSans-99"/>
    <use x="1089.488281" xlink:href="#DejaVuSans-97"/>
    <use x="1150.767578" xlink:href="#DejaVuSans-110"/>
    <use x="1214.146484" xlink:href="#DejaVuSans-45"/>
    <use x="1250.230469" xlink:href="#DejaVuSans-32"/>
    <use x="1282.017578" xlink:href="#DejaVuSans-80"/>
    <use x="1342.304688" xlink:href="#DejaVuSans-114"/>
    <use x="1383.386719" xlink:href="#DejaVuSans-101"/>
    <use x="1444.910156" xlink:href="#DejaVuSans-32"/>
    <use x="1476.697266" xlink:href="#DejaVuSans-69"/>
    <use x="1539.880859" xlink:href="#DejaVuSans-108"/>
    <use x="1567.664062" xlink:href="#DejaVuSans-101"/>
    <use x="1629.1875" xlink:href="#DejaVuSans-99"/>
    <use x="1684.167969" xlink:href="#DejaVuSans-116"/>
    <use x="1723.376953" xlink:href="#DejaVuSans-105"/>
    <use x="1751.160156" xlink:href="#DejaVuSans-111"/>
    <use x="1812.341797" xlink:href="#DejaVuSans-110"/>
   </g>
  </g>
 </g>
 <defs>
  <clipPath id="pa124d780fe">
   <rect height="277.2" width="558" x="90" y="43.2"/>
  </clipPath>
 </defs>
</svg>
